<mxfile host="app.diagrams.net" modified="2024-03-29T16:50:42.683Z" agent="Mozilla/5.0 (Windows NT 10.0; Win64; x64) AppleWebKit/537.36 (KHTML, like Gecko) Chrome/123.0.0.0 Safari/537.36 Edg/123.0.0.0" etag="7z0UPeKIsveMW1P0Q34m" version="24.2.1" type="github">
  <diagram name="Page-1" id="LJP4qCCuPjJxsVchOq65">
    <mxGraphModel dx="746" dy="387" grid="0" gridSize="10" guides="1" tooltips="1" connect="1" arrows="1" fold="1" page="1" pageScale="1" pageWidth="850" pageHeight="1100" math="0" shadow="0">
      <root>
        <mxCell id="0" />
        <mxCell id="1" parent="0" />
        <mxCell id="2JYu3gfVSalT3sonY9hl-1" value="" style="shape=image;verticalLabelPosition=bottom;labelBackgroundColor=default;verticalAlign=top;aspect=fixed;imageAspect=0;image=data:image/svg+xml,PHN2ZyB4bWxuczp4bGluaz0iaHR0cDovL3d3dy53My5vcmcvMTk5OS94bGluayIgeG1sbnM9Imh0dHA6Ly93d3cudzMub3JnLzIwMDAvc3ZnIiBoZWlnaHQ9IjEwMCUiIGlkPSJncmFwaC1kaXYiIHdpZHRoPSIxMDAlIiBzdHlsZT0ibWF4LXdpZHRoOiAxMDAlOyIgdmlld0JveD0iLTUwIC0xMCA0MDE2IDI5OTQiIHJvbGU9ImdyYXBoaWNzLWRvY3VtZW50IGRvY3VtZW50IiBhcmlhLXJvbGVkZXNjcmlwdGlvbj0ic2VxdWVuY2UiPjxzdHlsZT5AaW1wb3J0IHVybCgiaHR0cHM6Ly9jZG5qcy5jbG91ZGZsYXJlLmNvbS9hamF4L2xpYnMvZm9udC1hd2Vzb21lLzYuMi4wL2Nzcy9hbGwubWluLmNzcyIpOyc8L3N0eWxlPjxnPjxyZWN0IHg9IjM3MTUiIHk9IjI5MDgiIGZpbGw9IiNlYWVhZWEiIHN0cm9rZT0iIzY2NiIgd2lkdGg9IjE5MiIgaGVpZ2h0PSI2NSIgbmFtZT0iZXJyb3JIYW5kbGVyTWlkZGxld2FyZSIgcng9IjMiIHJ5PSIzIiBjbGFzcz0iYWN0b3IgYWN0b3ItYm90dG9tIi8+PHRleHQgeD0iMzgxMSIgeT0iMjk0MC41IiBzdHlsZT0idGV4dC1hbmNob3I6IG1pZGRsZTsgZm9udC1zaXplOiAxNnB4OyBmb250LXdlaWdodDogNDAwOyIgYWxpZ25tZW50LWJhc2VsaW5lPSJjZW50cmFsIiBjbGFzcz0iYWN0b3IiPjx0c3BhbiB4PSIzODExIiBkeT0iMCI+ZXJyb3JIYW5kbGVyTWlkZGxld2FyZTwvdHNwYW4+PC90ZXh0PjwvZz48Zz48cmVjdCB4PSIzNDg0IiB5PSIyOTA4IiBmaWxsPSIjZWFlYWVhIiBzdHJva2U9IiM2NjYiIHdpZHRoPSIxODEiIGhlaWdodD0iNjUiIG5hbWU9IkVycm9ySGFuZGxlcl9JbnN0YW5jZSIgcng9IjMiIHJ5PSIzIiBjbGFzcz0iYWN0b3IgYWN0b3ItYm90dG9tIi8+PHRleHQgeD0iMzU3NC41IiB5PSIyOTQwLjUiIHN0eWxlPSJ0ZXh0LWFuY2hvcjogbWlkZGxlOyBmb250LXNpemU6IDE2cHg7IGZvbnQtd2VpZ2h0OiA0MDA7IiBhbGlnbm1lbnQtYmFzZWxpbmU9ImNlbnRyYWwiIGNsYXNzPSJhY3RvciI+PHRzcGFuIHg9IjM1NzQuNSIgZHk9IjAiPkVycm9ySGFuZGxlcl9JbnN0YW5jZTwvdHNwYW4+PC90ZXh0PjwvZz48Zz48cmVjdCB4PSIzMjg0IiB5PSIyOTA4IiBmaWxsPSIjZWFlYWVhIiBzdHJva2U9IiM2NjYiIHdpZHRoPSIxNTAiIGhlaWdodD0iNjUiIG5hbWU9InByb2R1Y3RTY2hlbWEiIHJ4PSIzIiByeT0iMyIgY2xhc3M9ImFjdG9yIGFjdG9yLWJvdHRvbSIvPjx0ZXh0IHg9IjMzNTkiIHk9IjI5NDAuNSIgc3R5bGU9InRleHQtYW5jaG9yOiBtaWRkbGU7IGZvbnQtc2l6ZTogMTZweDsgZm9udC13ZWlnaHQ6IDQwMDsiIGFsaWdubWVudC1iYXNlbGluZT0iY2VudHJhbCIgY2xhc3M9ImFjdG9yIj48dHNwYW4geD0iMzM1OSIgZHk9IjAiPnByb2R1Y3RTY2hlbWE8L3RzcGFuPjwvdGV4dD48L2c+PGc+PHJlY3QgeD0iMzA4NCIgeT0iMjkwOCIgZmlsbD0iI2VhZWFlYSIgc3Ryb2tlPSIjNjY2IiB3aWR0aD0iMTUwIiBoZWlnaHQ9IjY1IiBuYW1lPSJjYXRjaEFzeW5jRXJyb3JzIiByeD0iMyIgcnk9IjMiIGNsYXNzPSJhY3RvciBhY3Rvci1ib3R0b20iLz48dGV4dCB4PSIzMTU5IiB5PSIyOTQwLjUiIHN0eWxlPSJ0ZXh0LWFuY2hvcjogbWlkZGxlOyBmb250LXNpemU6IDE2cHg7IGZvbnQtd2VpZ2h0OiA0MDA7IiBhbGlnbm1lbnQtYmFzZWxpbmU9ImNlbnRyYWwiIGNsYXNzPSJhY3RvciI+PHRzcGFuIHg9IjMxNTkiIGR5PSIwIj5jYXRjaEFzeW5jRXJyb3JzPC90c3Bhbj48L3RleHQ+PC9nPjxnPjxyZWN0IHg9IjI4ODQiIHk9IjI5MDgiIGZpbGw9IiNlYWVhZWEiIHN0cm9rZT0iIzY2NiIgd2lkdGg9IjE1MCIgaGVpZ2h0PSI2NSIgbmFtZT0iRXJyb3JIYW5kbGVyIiByeD0iMyIgcnk9IjMiIGNsYXNzPSJhY3RvciBhY3Rvci1ib3R0b20iLz48dGV4dCB4PSIyOTU5IiB5PSIyOTQwLjUiIHN0eWxlPSJ0ZXh0LWFuY2hvcjogbWlkZGxlOyBmb250LXNpemU6IDE2cHg7IGZvbnQtd2VpZ2h0OiA0MDA7IiBhbGlnbm1lbnQtYmFzZWxpbmU9ImNlbnRyYWwiIGNsYXNzPSJhY3RvciI+PHRzcGFuIHg9IjI5NTkiIGR5PSIwIj5FcnJvckhhbmRsZXI8L3RzcGFuPjwvdGV4dD48L2c+PGc+PHJlY3QgeD0iMjY4NCIgeT0iMjkwOCIgZmlsbD0iI2VhZWFlYSIgc3Ryb2tlPSIjNjY2IiB3aWR0aD0iMTUwIiBoZWlnaHQ9IjY1IiBuYW1lPSJQcm9kdWN0IiByeD0iMyIgcnk9IjMiIGNsYXNzPSJhY3RvciBhY3Rvci1ib3R0b20iLz48dGV4dCB4PSIyNzU5IiB5PSIyOTQwLjUiIHN0eWxlPSJ0ZXh0LWFuY2hvcjogbWlkZGxlOyBmb250LXNpemU6IDE2cHg7IGZvbnQtd2VpZ2h0OiA0MDA7IiBhbGlnbm1lbnQtYmFzZWxpbmU9ImNlbnRyYWwiIGNsYXNzPSJhY3RvciI+PHRzcGFuIHg9IjI3NTkiIGR5PSIwIj5Qcm9kdWN0PC90c3Bhbj48L3RleHQ+PC9nPjxnPjxyZWN0IHg9IjI0NTEiIHk9IjI5MDgiIGZpbGw9IiNlYWVhZWEiIHN0cm9rZT0iIzY2NiIgd2lkdGg9IjE1MCIgaGVpZ2h0PSI2NSIgbmFtZT0iZGVsZXRlUHJvZHVjdCIgcng9IjMiIHJ5PSIzIiBjbGFzcz0iYWN0b3IgYWN0b3ItYm90dG9tIi8+PHRleHQgeD0iMjUyNiIgeT0iMjk0MC41IiBzdHlsZT0idGV4dC1hbmNob3I6IG1pZGRsZTsgZm9udC1zaXplOiAxNnB4OyBmb250LXdlaWdodDogNDAwOyIgYWxpZ25tZW50LWJhc2VsaW5lPSJjZW50cmFsIiBjbGFzcz0iYWN0b3IiPjx0c3BhbiB4PSIyNTI2IiBkeT0iMCI+ZGVsZXRlUHJvZHVjdDwvdHNwYW4+PC90ZXh0PjwvZz48Zz48cmVjdCB4PSIyMjUxIiB5PSIyOTA4IiBmaWxsPSIjZWFlYWVhIiBzdHJva2U9IiM2NjYiIHdpZHRoPSIxNTAiIGhlaWdodD0iNjUiIG5hbWU9ImdldEFsbFByb2R1Y3RzIiByeD0iMyIgcnk9IjMiIGNsYXNzPSJhY3RvciBhY3Rvci1ib3R0b20iLz48dGV4dCB4PSIyMzI2IiB5PSIyOTQwLjUiIHN0eWxlPSJ0ZXh0LWFuY2hvcjogbWlkZGxlOyBmb250LXNpemU6IDE2cHg7IGZvbnQtd2VpZ2h0OiA0MDA7IiBhbGlnbm1lbnQtYmFzZWxpbmU9ImNlbnRyYWwiIGNsYXNzPSJhY3RvciI+PHRzcGFuIHg9IjIzMjYiIGR5PSIwIj5nZXRBbGxQcm9kdWN0czwvdHNwYW4+PC90ZXh0PjwvZz48Zz48cmVjdCB4PSIyMDUxIiB5PSIyOTA4IiBmaWxsPSIjZWFlYWVhIiBzdHJva2U9IiM2NjYiIHdpZHRoPSIxNTAiIGhlaWdodD0iNjUiIG5hbWU9ImdldFByb2R1Y3QiIHJ4PSIzIiByeT0iMyIgY2xhc3M9ImFjdG9yIGFjdG9yLWJvdHRvbSIvPjx0ZXh0IHg9IjIxMjYiIHk9IjI5NDAuNSIgc3R5bGU9InRleHQtYW5jaG9yOiBtaWRkbGU7IGZvbnQtc2l6ZTogMTZweDsgZm9udC13ZWlnaHQ6IDQwMDsiIGFsaWdubWVudC1iYXNlbGluZT0iY2VudHJhbCIgY2xhc3M9ImFjdG9yIj48dHNwYW4geD0iMjEyNiIgZHk9IjAiPmdldFByb2R1Y3Q8L3RzcGFuPjwvdGV4dD48L2c+PGc+PHJlY3QgeD0iMTg1MSIgeT0iMjkwOCIgZmlsbD0iI2VhZWFlYSIgc3Ryb2tlPSIjNjY2IiB3aWR0aD0iMTUwIiBoZWlnaHQ9IjY1IiBuYW1lPSJ1cGRhdGVQcm9kdWN0IiByeD0iMyIgcnk9IjMiIGNsYXNzPSJhY3RvciBhY3Rvci1ib3R0b20iLz48dGV4dCB4PSIxOTI2IiB5PSIyOTQwLjUiIHN0eWxlPSJ0ZXh0LWFuY2hvcjogbWlkZGxlOyBmb250LXNpemU6IDE2cHg7IGZvbnQtd2VpZ2h0OiA0MDA7IiBhbGlnbm1lbnQtYmFzZWxpbmU9ImNlbnRyYWwiIGNsYXNzPSJhY3RvciI+PHRzcGFuIHg9IjE5MjYiIGR5PSIwIj51cGRhdGVQcm9kdWN0PC90c3Bhbj48L3RleHQ+PC9nPjxnPjxyZWN0IHg9IjE2NTEiIHk9IjI5MDgiIGZpbGw9IiNlYWVhZWEiIHN0cm9rZT0iIzY2NiIgd2lkdGg9IjE1MCIgaGVpZ2h0PSI2NSIgbmFtZT0ibmV3UHJvZHVjdCIgcng9IjMiIHJ5PSIzIiBjbGFzcz0iYWN0b3IgYWN0b3ItYm90dG9tIi8+PHRleHQgeD0iMTcyNiIgeT0iMjk0MC41IiBzdHlsZT0idGV4dC1hbmNob3I6IG1pZGRsZTsgZm9udC1zaXplOiAxNnB4OyBmb250LXdlaWdodDogNDAwOyIgYWxpZ25tZW50LWJhc2VsaW5lPSJjZW50cmFsIiBjbGFzcz0iYWN0b3IiPjx0c3BhbiB4PSIxNzI2IiBkeT0iMCI+bmV3UHJvZHVjdDwvdHNwYW4+PC90ZXh0PjwvZz48Zz48cmVjdCB4PSIxNDUxIiB5PSIyOTA4IiBmaWxsPSIjZWFlYWVhIiBzdHJva2U9IiM2NjYiIHdpZHRoPSIxNTAiIGhlaWdodD0iNjUiIG5hbWU9InJvdXRlciIgcng9IjMiIHJ5PSIzIiBjbGFzcz0iYWN0b3IgYWN0b3ItYm90dG9tIi8+PHRleHQgeD0iMTUyNiIgeT0iMjk0MC41IiBzdHlsZT0idGV4dC1hbmNob3I6IG1pZGRsZTsgZm9udC1zaXplOiAxNnB4OyBmb250LXdlaWdodDogNDAwOyIgYWxpZ25tZW50LWJhc2VsaW5lPSJjZW50cmFsIiBjbGFzcz0iYWN0b3IiPjx0c3BhbiB4PSIxNTI2IiBkeT0iMCI+cm91dGVyPC90c3Bhbj48L3RleHQ+PC9nPjxnPjxyZWN0IHg9IjEyNTEiIHk9IjI5MDgiIGZpbGw9IiNlYWVhZWEiIHN0cm9rZT0iIzY2NiIgd2lkdGg9IjE1MCIgaGVpZ2h0PSI2NSIgbmFtZT0iZXJyb3JNaWRkbGV3YXJlIiByeD0iMyIgcnk9IjMiIGNsYXNzPSJhY3RvciBhY3Rvci1ib3R0b20iLz48dGV4dCB4PSIxMzI2IiB5PSIyOTQwLjUiIHN0eWxlPSJ0ZXh0LWFuY2hvcjogbWlkZGxlOyBmb250LXNpemU6IDE2cHg7IGZvbnQtd2VpZ2h0OiA0MDA7IiBhbGlnbm1lbnQtYmFzZWxpbmU9ImNlbnRyYWwiIGNsYXNzPSJhY3RvciI+PHRzcGFuIHg9IjEzMjYiIGR5PSIwIj5lcnJvck1pZGRsZXdhcmU8L3RzcGFuPjwvdGV4dD48L2c+PGc+PHJlY3QgeD0iMTA1MSIgeT0iMjkwOCIgZmlsbD0iI2VhZWFlYSIgc3Ryb2tlPSIjNjY2IiB3aWR0aD0iMTUwIiBoZWlnaHQ9IjY1IiBuYW1lPSJwcm9kdWN0c1JvdXRlciIgcng9IjMiIHJ5PSIzIiBjbGFzcz0iYWN0b3IgYWN0b3ItYm90dG9tIi8+PHRleHQgeD0iMTEyNiIgeT0iMjk0MC41IiBzdHlsZT0idGV4dC1hbmNob3I6IG1pZGRsZTsgZm9udC1zaXplOiAxNnB4OyBmb250LXdlaWdodDogNDAwOyIgYWxpZ25tZW50LWJhc2VsaW5lPSJjZW50cmFsIiBjbGFzcz0iYWN0b3IiPjx0c3BhbiB4PSIxMTI2IiBkeT0iMCI+cHJvZHVjdHNSb3V0ZXI8L3RzcGFuPjwvdGV4dD48L2c+PGc+PHJlY3QgeD0iODUxIiB5PSIyOTA4IiBmaWxsPSIjZWFlYWVhIiBzdHJva2U9IiM2NjYiIHdpZHRoPSIxNTAiIGhlaWdodD0iNjUiIG5hbWU9ImV4cHJlc3MiIHJ4PSIzIiByeT0iMyIgY2xhc3M9ImFjdG9yIGFjdG9yLWJvdHRvbSIvPjx0ZXh0IHg9IjkyNiIgeT0iMjk0MC41IiBzdHlsZT0idGV4dC1hbmNob3I6IG1pZGRsZTsgZm9udC1zaXplOiAxNnB4OyBmb250LXdlaWdodDogNDAwOyIgYWxpZ25tZW50LWJhc2VsaW5lPSJjZW50cmFsIiBjbGFzcz0iYWN0b3IiPjx0c3BhbiB4PSI5MjYiIGR5PSIwIj5leHByZXNzPC90c3Bhbj48L3RleHQ+PC9nPjxnPjxyZWN0IHg9IjY1MSIgeT0iMjkwOCIgZmlsbD0iI2VhZWFlYSIgc3Ryb2tlPSIjNjY2IiB3aWR0aD0iMTUwIiBoZWlnaHQ9IjY1IiBuYW1lPSJhcHAiIHJ4PSIzIiByeT0iMyIgY2xhc3M9ImFjdG9yIGFjdG9yLWJvdHRvbSIvPjx0ZXh0IHg9IjcyNiIgeT0iMjk0MC41IiBzdHlsZT0idGV4dC1hbmNob3I6IG1pZGRsZTsgZm9udC1zaXplOiAxNnB4OyBmb250LXdlaWdodDogNDAwOyIgYWxpZ25tZW50LWJhc2VsaW5lPSJjZW50cmFsIiBjbGFzcz0iYWN0b3IiPjx0c3BhbiB4PSI3MjYiIGR5PSIwIj5hcHA8L3RzcGFuPjwvdGV4dD48L2c+PGc+PHJlY3QgeD0iNDUxIiB5PSIyOTA4IiBmaWxsPSIjZWFlYWVhIiBzdHJva2U9IiM2NjYiIHdpZHRoPSIxNTAiIGhlaWdodD0iNjUiIG5hbWU9Im1vbmdvb3NlIiByeD0iMyIgcnk9IjMiIGNsYXNzPSJhY3RvciBhY3Rvci1ib3R0b20iLz48dGV4dCB4PSI1MjYiIHk9IjI5NDAuNSIgc3R5bGU9InRleHQtYW5jaG9yOiBtaWRkbGU7IGZvbnQtc2l6ZTogMTZweDsgZm9udC13ZWlnaHQ6IDQwMDsiIGFsaWdubWVudC1iYXNlbGluZT0iY2VudHJhbCIgY2xhc3M9ImFjdG9yIj48dHNwYW4geD0iNTI2IiBkeT0iMCI+bW9uZ29vc2U8L3RzcGFuPjwvdGV4dD48L2c+PGc+PHJlY3QgeD0iMjAwIiB5PSIyOTA4IiBmaWxsPSIjZWFlYWVhIiBzdHJva2U9IiM2NjYiIHdpZHRoPSIxNjIiIGhlaWdodD0iNjUiIG5hbWU9ImNvbm5lY3RUb0RhdGFiYXNlIiByeD0iMyIgcnk9IjMiIGNsYXNzPSJhY3RvciBhY3Rvci1ib3R0b20iLz48dGV4dCB4PSIyODEiIHk9IjI5NDAuNSIgc3R5bGU9InRleHQtYW5jaG9yOiBtaWRkbGU7IGZvbnQtc2l6ZTogMTZweDsgZm9udC13ZWlnaHQ6IDQwMDsiIGFsaWdubWVudC1iYXNlbGluZT0iY2VudHJhbCIgY2xhc3M9ImFjdG9yIj48dHNwYW4geD0iMjgxIiBkeT0iMCI+Y29ubmVjdFRvRGF0YWJhc2U8L3RzcGFuPjwvdGV4dD48L2c+PGc+PHJlY3QgeD0iMCIgeT0iMjkwOCIgZmlsbD0iI2VhZWFlYSIgc3Ryb2tlPSIjNjY2IiB3aWR0aD0iMTUwIiBoZWlnaHQ9IjY1IiBuYW1lPSJkb3RlbnYiIHJ4PSIzIiByeT0iMyIgY2xhc3M9ImFjdG9yIGFjdG9yLWJvdHRvbSIvPjx0ZXh0IHg9Ijc1IiB5PSIyOTQwLjUiIHN0eWxlPSJ0ZXh0LWFuY2hvcjogbWlkZGxlOyBmb250LXNpemU6IDE2cHg7IGZvbnQtd2VpZ2h0OiA0MDA7IiBhbGlnbm1lbnQtYmFzZWxpbmU9ImNlbnRyYWwiIGNsYXNzPSJhY3RvciI+PHRzcGFuIHg9Ijc1IiBkeT0iMCI+ZG90ZW52PC90c3Bhbj48L3RleHQ+PC9nPjxnPjxsaW5lIGlkPSJhY3Rvcjc1IiBkYXRhLWV0PSJsaWZlLWxpbmUiIGRhdGEtaWQ9ImVycm9ySGFuZGxlck1pZGRsZXdhcmUiIHgxPSIzODExIiB5MT0iNjUiIHgyPSIzODExIiB5Mj0iMjkwOCIgY2xhc3M9IjIwMCIgc3Ryb2tlLXdpZHRoPSIwLjVweCIgc3Ryb2tlPSIjOTk5Ii8+PGcgaWQ9InJvb3QtNzUiIGRhdGEtZXQ9InBhcnRpY2lwYW50IiBkYXRhLWlkPSJlcnJvckhhbmRsZXJNaWRkbGV3YXJlIj48cmVjdCB4PSIzNzE1IiB5PSIwIiBmaWxsPSIjZWFlYWVhIiBzdHJva2U9IiM2NjYiIHdpZHRoPSIxOTIiIGhlaWdodD0iNjUiIG5hbWU9ImVycm9ySGFuZGxlck1pZGRsZXdhcmUiIHJ4PSIzIiByeT0iMyIgY2xhc3M9ImFjdG9yIGFjdG9yLXRvcCIvPjx0ZXh0IHg9IjM4MTEiIHk9IjMyLjUiIHN0eWxlPSJ0ZXh0LWFuY2hvcjogbWlkZGxlOyBmb250LXNpemU6IDE2cHg7IGZvbnQtd2VpZ2h0OiA0MDA7IiBhbGlnbm1lbnQtYmFzZWxpbmU9ImNlbnRyYWwiIGNsYXNzPSJhY3RvciI+PHRzcGFuIHg9IjM4MTEiIGR5PSIwIj5lcnJvckhhbmRsZXJNaWRkbGV3YXJlPC90c3Bhbj48L3RleHQ+PC9nPjwvZz48Zz48bGluZSBpZD0iYWN0b3I3NCIgZGF0YS1ldD0ibGlmZS1saW5lIiBkYXRhLWlkPSJFcnJvckhhbmRsZXJfSW5zdGFuY2UiIHgxPSIzNTc0LjUiIHkxPSI2NSIgeDI9IjM1NzQuNSIgeTI9IjI5MDgiIGNsYXNzPSIyMDAiIHN0cm9rZS13aWR0aD0iMC41cHgiIHN0cm9rZT0iIzk5OSIvPjxnIGlkPSJyb290LTc0IiBkYXRhLWV0PSJwYXJ0aWNpcGFudCIgZGF0YS1pZD0iRXJyb3JIYW5kbGVyX0luc3RhbmNlIj48cmVjdCB4PSIzNDg0IiB5PSIwIiBmaWxsPSIjZWFlYWVhIiBzdHJva2U9IiM2NjYiIHdpZHRoPSIxODEiIGhlaWdodD0iNjUiIG5hbWU9IkVycm9ySGFuZGxlcl9JbnN0YW5jZSIgcng9IjMiIHJ5PSIzIiBjbGFzcz0iYWN0b3IgYWN0b3ItdG9wIi8+PHRleHQgeD0iMzU3NC41IiB5PSIzMi41IiBzdHlsZT0idGV4dC1hbmNob3I6IG1pZGRsZTsgZm9udC1zaXplOiAxNnB4OyBmb250LXdlaWdodDogNDAwOyIgYWxpZ25tZW50LWJhc2VsaW5lPSJjZW50cmFsIiBjbGFzcz0iYWN0b3IiPjx0c3BhbiB4PSIzNTc0LjUiIGR5PSIwIj5FcnJvckhhbmRsZXJfSW5zdGFuY2U8L3RzcGFuPjwvdGV4dD48L2c+PC9nPjxnPjxsaW5lIGlkPSJhY3RvcjczIiBkYXRhLWV0PSJsaWZlLWxpbmUiIGRhdGEtaWQ9InByb2R1Y3RTY2hlbWEiIHgxPSIzMzU5IiB5MT0iNjUiIHgyPSIzMzU5IiB5Mj0iMjkwOCIgY2xhc3M9IjIwMCIgc3Ryb2tlLXdpZHRoPSIwLjVweCIgc3Ryb2tlPSIjOTk5Ii8+PGcgaWQ9InJvb3QtNzMiIGRhdGEtZXQ9InBhcnRpY2lwYW50IiBkYXRhLWlkPSJwcm9kdWN0U2NoZW1hIj48cmVjdCB4PSIzMjg0IiB5PSIwIiBmaWxsPSIjZWFlYWVhIiBzdHJva2U9IiM2NjYiIHdpZHRoPSIxNTAiIGhlaWdodD0iNjUiIG5hbWU9InByb2R1Y3RTY2hlbWEiIHJ4PSIzIiByeT0iMyIgY2xhc3M9ImFjdG9yIGFjdG9yLXRvcCIvPjx0ZXh0IHg9IjMzNTkiIHk9IjMyLjUiIHN0eWxlPSJ0ZXh0LWFuY2hvcjogbWlkZGxlOyBmb250LXNpemU6IDE2cHg7IGZvbnQtd2VpZ2h0OiA0MDA7IiBhbGlnbm1lbnQtYmFzZWxpbmU9ImNlbnRyYWwiIGNsYXNzPSJhY3RvciI+PHRzcGFuIHg9IjMzNTkiIGR5PSIwIj5wcm9kdWN0U2NoZW1hPC90c3Bhbj48L3RleHQ+PC9nPjwvZz48Zz48bGluZSBpZD0iYWN0b3I3MiIgZGF0YS1ldD0ibGlmZS1saW5lIiBkYXRhLWlkPSJjYXRjaEFzeW5jRXJyb3JzIiB4MT0iMzE1OSIgeTE9IjY1IiB4Mj0iMzE1OSIgeTI9IjI5MDgiIGNsYXNzPSIyMDAiIHN0cm9rZS13aWR0aD0iMC41cHgiIHN0cm9rZT0iIzk5OSIvPjxnIGlkPSJyb290LTcyIiBkYXRhLWV0PSJwYXJ0aWNpcGFudCIgZGF0YS1pZD0iY2F0Y2hBc3luY0Vycm9ycyI+PHJlY3QgeD0iMzA4NCIgeT0iMCIgZmlsbD0iI2VhZWFlYSIgc3Ryb2tlPSIjNjY2IiB3aWR0aD0iMTUwIiBoZWlnaHQ9IjY1IiBuYW1lPSJjYXRjaEFzeW5jRXJyb3JzIiByeD0iMyIgcnk9IjMiIGNsYXNzPSJhY3RvciBhY3Rvci10b3AiLz48dGV4dCB4PSIzMTU5IiB5PSIzMi41IiBzdHlsZT0idGV4dC1hbmNob3I6IG1pZGRsZTsgZm9udC1zaXplOiAxNnB4OyBmb250LXdlaWdodDogNDAwOyIgYWxpZ25tZW50LWJhc2VsaW5lPSJjZW50cmFsIiBjbGFzcz0iYWN0b3IiPjx0c3BhbiB4PSIzMTU5IiBkeT0iMCI+Y2F0Y2hBc3luY0Vycm9yczwvdHNwYW4+PC90ZXh0PjwvZz48L2c+PGc+PGxpbmUgaWQ9ImFjdG9yNzEiIGRhdGEtZXQ9ImxpZmUtbGluZSIgZGF0YS1pZD0iRXJyb3JIYW5kbGVyIiB4MT0iMjk1OSIgeTE9IjY1IiB4Mj0iMjk1OSIgeTI9IjI5MDgiIGNsYXNzPSIyMDAiIHN0cm9rZS13aWR0aD0iMC41cHgiIHN0cm9rZT0iIzk5OSIvPjxnIGlkPSJyb290LTcxIiBkYXRhLWV0PSJwYXJ0aWNpcGFudCIgZGF0YS1pZD0iRXJyb3JIYW5kbGVyIj48cmVjdCB4PSIyODg0IiB5PSIwIiBmaWxsPSIjZWFlYWVhIiBzdHJva2U9IiM2NjYiIHdpZHRoPSIxNTAiIGhlaWdodD0iNjUiIG5hbWU9IkVycm9ySGFuZGxlciIgcng9IjMiIHJ5PSIzIiBjbGFzcz0iYWN0b3IgYWN0b3ItdG9wIi8+PHRleHQgeD0iMjk1OSIgeT0iMzIuNSIgc3R5bGU9InRleHQtYW5jaG9yOiBtaWRkbGU7IGZvbnQtc2l6ZTogMTZweDsgZm9udC13ZWlnaHQ6IDQwMDsiIGFsaWdubWVudC1iYXNlbGluZT0iY2VudHJhbCIgY2xhc3M9ImFjdG9yIj48dHNwYW4geD0iMjk1OSIgZHk9IjAiPkVycm9ySGFuZGxlcjwvdHNwYW4+PC90ZXh0PjwvZz48L2c+PGc+PGxpbmUgaWQ9ImFjdG9yNzAiIGRhdGEtZXQ9ImxpZmUtbGluZSIgZGF0YS1pZD0iUHJvZHVjdCIgeDE9IjI3NTkiIHkxPSI2NSIgeDI9IjI3NTkiIHkyPSIyOTA4IiBjbGFzcz0iMjAwIiBzdHJva2Utd2lkdGg9IjAuNXB4IiBzdHJva2U9IiM5OTkiLz48ZyBpZD0icm9vdC03MCIgZGF0YS1ldD0icGFydGljaXBhbnQiIGRhdGEtaWQ9IlByb2R1Y3QiPjxyZWN0IHg9IjI2ODQiIHk9IjAiIGZpbGw9IiNlYWVhZWEiIHN0cm9rZT0iIzY2NiIgd2lkdGg9IjE1MCIgaGVpZ2h0PSI2NSIgbmFtZT0iUHJvZHVjdCIgcng9IjMiIHJ5PSIzIiBjbGFzcz0iYWN0b3IgYWN0b3ItdG9wIi8+PHRleHQgeD0iMjc1OSIgeT0iMzIuNSIgc3R5bGU9InRleHQtYW5jaG9yOiBtaWRkbGU7IGZvbnQtc2l6ZTogMTZweDsgZm9udC13ZWlnaHQ6IDQwMDsiIGFsaWdubWVudC1iYXNlbGluZT0iY2VudHJhbCIgY2xhc3M9ImFjdG9yIj48dHNwYW4geD0iMjc1OSIgZHk9IjAiPlByb2R1Y3Q8L3RzcGFuPjwvdGV4dD48L2c+PC9nPjxnPjxsaW5lIGlkPSJhY3RvcjY5IiBkYXRhLWV0PSJsaWZlLWxpbmUiIGRhdGEtaWQ9ImRlbGV0ZVByb2R1Y3QiIHgxPSIyNTI2IiB5MT0iNjUiIHgyPSIyNTI2IiB5Mj0iMjkwOCIgY2xhc3M9IjIwMCIgc3Ryb2tlLXdpZHRoPSIwLjVweCIgc3Ryb2tlPSIjOTk5Ii8+PGcgaWQ9InJvb3QtNjkiIGRhdGEtZXQ9InBhcnRpY2lwYW50IiBkYXRhLWlkPSJkZWxldGVQcm9kdWN0Ij48cmVjdCB4PSIyNDUxIiB5PSIwIiBmaWxsPSIjZWFlYWVhIiBzdHJva2U9IiM2NjYiIHdpZHRoPSIxNTAiIGhlaWdodD0iNjUiIG5hbWU9ImRlbGV0ZVByb2R1Y3QiIHJ4PSIzIiByeT0iMyIgY2xhc3M9ImFjdG9yIGFjdG9yLXRvcCIvPjx0ZXh0IHg9IjI1MjYiIHk9IjMyLjUiIHN0eWxlPSJ0ZXh0LWFuY2hvcjogbWlkZGxlOyBmb250LXNpemU6IDE2cHg7IGZvbnQtd2VpZ2h0OiA0MDA7IiBhbGlnbm1lbnQtYmFzZWxpbmU9ImNlbnRyYWwiIGNsYXNzPSJhY3RvciI+PHRzcGFuIHg9IjI1MjYiIGR5PSIwIj5kZWxldGVQcm9kdWN0PC90c3Bhbj48L3RleHQ+PC9nPjwvZz48Zz48bGluZSBpZD0iYWN0b3I2OCIgZGF0YS1ldD0ibGlmZS1saW5lIiBkYXRhLWlkPSJnZXRBbGxQcm9kdWN0cyIgeDE9IjIzMjYiIHkxPSI2NSIgeDI9IjIzMjYiIHkyPSIyOTA4IiBjbGFzcz0iMjAwIiBzdHJva2Utd2lkdGg9IjAuNXB4IiBzdHJva2U9IiM5OTkiLz48ZyBpZD0icm9vdC02OCIgZGF0YS1ldD0icGFydGljaXBhbnQiIGRhdGEtaWQ9ImdldEFsbFByb2R1Y3RzIj48cmVjdCB4PSIyMjUxIiB5PSIwIiBmaWxsPSIjZWFlYWVhIiBzdHJva2U9IiM2NjYiIHdpZHRoPSIxNTAiIGhlaWdodD0iNjUiIG5hbWU9ImdldEFsbFByb2R1Y3RzIiByeD0iMyIgcnk9IjMiIGNsYXNzPSJhY3RvciBhY3Rvci10b3AiLz48dGV4dCB4PSIyMzI2IiB5PSIzMi41IiBzdHlsZT0idGV4dC1hbmNob3I6IG1pZGRsZTsgZm9udC1zaXplOiAxNnB4OyBmb250LXdlaWdodDogNDAwOyIgYWxpZ25tZW50LWJhc2VsaW5lPSJjZW50cmFsIiBjbGFzcz0iYWN0b3IiPjx0c3BhbiB4PSIyMzI2IiBkeT0iMCI+Z2V0QWxsUHJvZHVjdHM8L3RzcGFuPjwvdGV4dD48L2c+PC9nPjxnPjxsaW5lIGlkPSJhY3RvcjY3IiBkYXRhLWV0PSJsaWZlLWxpbmUiIGRhdGEtaWQ9ImdldFByb2R1Y3QiIHgxPSIyMTI2IiB5MT0iNjUiIHgyPSIyMTI2IiB5Mj0iMjkwOCIgY2xhc3M9IjIwMCIgc3Ryb2tlLXdpZHRoPSIwLjVweCIgc3Ryb2tlPSIjOTk5Ii8+PGcgaWQ9InJvb3QtNjciIGRhdGEtZXQ9InBhcnRpY2lwYW50IiBkYXRhLWlkPSJnZXRQcm9kdWN0Ij48cmVjdCB4PSIyMDUxIiB5PSIwIiBmaWxsPSIjZWFlYWVhIiBzdHJva2U9IiM2NjYiIHdpZHRoPSIxNTAiIGhlaWdodD0iNjUiIG5hbWU9ImdldFByb2R1Y3QiIHJ4PSIzIiByeT0iMyIgY2xhc3M9ImFjdG9yIGFjdG9yLXRvcCIvPjx0ZXh0IHg9IjIxMjYiIHk9IjMyLjUiIHN0eWxlPSJ0ZXh0LWFuY2hvcjogbWlkZGxlOyBmb250LXNpemU6IDE2cHg7IGZvbnQtd2VpZ2h0OiA0MDA7IiBhbGlnbm1lbnQtYmFzZWxpbmU9ImNlbnRyYWwiIGNsYXNzPSJhY3RvciI+PHRzcGFuIHg9IjIxMjYiIGR5PSIwIj5nZXRQcm9kdWN0PC90c3Bhbj48L3RleHQ+PC9nPjwvZz48Zz48bGluZSBpZD0iYWN0b3I2NiIgZGF0YS1ldD0ibGlmZS1saW5lIiBkYXRhLWlkPSJ1cGRhdGVQcm9kdWN0IiB4MT0iMTkyNiIgeTE9IjY1IiB4Mj0iMTkyNiIgeTI9IjI5MDgiIGNsYXNzPSIyMDAiIHN0cm9rZS13aWR0aD0iMC41cHgiIHN0cm9rZT0iIzk5OSIvPjxnIGlkPSJyb290LTY2IiBkYXRhLWV0PSJwYXJ0aWNpcGFudCIgZGF0YS1pZD0idXBkYXRlUHJvZHVjdCI+PHJlY3QgeD0iMTg1MSIgeT0iMCIgZmlsbD0iI2VhZWFlYSIgc3Ryb2tlPSIjNjY2IiB3aWR0aD0iMTUwIiBoZWlnaHQ9IjY1IiBuYW1lPSJ1cGRhdGVQcm9kdWN0IiByeD0iMyIgcnk9IjMiIGNsYXNzPSJhY3RvciBhY3Rvci10b3AiLz48dGV4dCB4PSIxOTI2IiB5PSIzMi41IiBzdHlsZT0idGV4dC1hbmNob3I6IG1pZGRsZTsgZm9udC1zaXplOiAxNnB4OyBmb250LXdlaWdodDogNDAwOyIgYWxpZ25tZW50LWJhc2VsaW5lPSJjZW50cmFsIiBjbGFzcz0iYWN0b3IiPjx0c3BhbiB4PSIxOTI2IiBkeT0iMCI+dXBkYXRlUHJvZHVjdDwvdHNwYW4+PC90ZXh0PjwvZz48L2c+PGc+PGxpbmUgaWQ9ImFjdG9yNjUiIGRhdGEtZXQ9ImxpZmUtbGluZSIgZGF0YS1pZD0ibmV3UHJvZHVjdCIgeDE9IjE3MjYiIHkxPSI2NSIgeDI9IjE3MjYiIHkyPSIyOTA4IiBjbGFzcz0iMjAwIiBzdHJva2Utd2lkdGg9IjAuNXB4IiBzdHJva2U9IiM5OTkiLz48ZyBpZD0icm9vdC02NSIgZGF0YS1ldD0icGFydGljaXBhbnQiIGRhdGEtaWQ9Im5ld1Byb2R1Y3QiPjxyZWN0IHg9IjE2NTEiIHk9IjAiIGZpbGw9IiNlYWVhZWEiIHN0cm9rZT0iIzY2NiIgd2lkdGg9IjE1MCIgaGVpZ2h0PSI2NSIgbmFtZT0ibmV3UHJvZHVjdCIgcng9IjMiIHJ5PSIzIiBjbGFzcz0iYWN0b3IgYWN0b3ItdG9wIi8+PHRleHQgeD0iMTcyNiIgeT0iMzIuNSIgc3R5bGU9InRleHQtYW5jaG9yOiBtaWRkbGU7IGZvbnQtc2l6ZTogMTZweDsgZm9udC13ZWlnaHQ6IDQwMDsiIGFsaWdubWVudC1iYXNlbGluZT0iY2VudHJhbCIgY2xhc3M9ImFjdG9yIj48dHNwYW4geD0iMTcyNiIgZHk9IjAiPm5ld1Byb2R1Y3Q8L3RzcGFuPjwvdGV4dD48L2c+PC9nPjxnPjxsaW5lIGlkPSJhY3RvcjY0IiBkYXRhLWV0PSJsaWZlLWxpbmUiIGRhdGEtaWQ9InJvdXRlciIgeDE9IjE1MjYiIHkxPSI2NSIgeDI9IjE1MjYiIHkyPSIyOTA4IiBjbGFzcz0iMjAwIiBzdHJva2Utd2lkdGg9IjAuNXB4IiBzdHJva2U9IiM5OTkiLz48ZyBpZD0icm9vdC02NCIgZGF0YS1ldD0icGFydGljaXBhbnQiIGRhdGEtaWQ9InJvdXRlciI+PHJlY3QgeD0iMTQ1MSIgeT0iMCIgZmlsbD0iI2VhZWFlYSIgc3Ryb2tlPSIjNjY2IiB3aWR0aD0iMTUwIiBoZWlnaHQ9IjY1IiBuYW1lPSJyb3V0ZXIiIHJ4PSIzIiByeT0iMyIgY2xhc3M9ImFjdG9yIGFjdG9yLXRvcCIvPjx0ZXh0IHg9IjE1MjYiIHk9IjMyLjUiIHN0eWxlPSJ0ZXh0LWFuY2hvcjogbWlkZGxlOyBmb250LXNpemU6IDE2cHg7IGZvbnQtd2VpZ2h0OiA0MDA7IiBhbGlnbm1lbnQtYmFzZWxpbmU9ImNlbnRyYWwiIGNsYXNzPSJhY3RvciI+PHRzcGFuIHg9IjE1MjYiIGR5PSIwIj5yb3V0ZXI8L3RzcGFuPjwvdGV4dD48L2c+PC9nPjxnPjxsaW5lIGlkPSJhY3RvcjYzIiBkYXRhLWV0PSJsaWZlLWxpbmUiIGRhdGEtaWQ9ImVycm9yTWlkZGxld2FyZSIgeDE9IjEzMjYiIHkxPSI2NSIgeDI9IjEzMjYiIHkyPSIyOTA4IiBjbGFzcz0iMjAwIiBzdHJva2Utd2lkdGg9IjAuNXB4IiBzdHJva2U9IiM5OTkiLz48ZyBpZD0icm9vdC02MyIgZGF0YS1ldD0icGFydGljaXBhbnQiIGRhdGEtaWQ9ImVycm9yTWlkZGxld2FyZSI+PHJlY3QgeD0iMTI1MSIgeT0iMCIgZmlsbD0iI2VhZWFlYSIgc3Ryb2tlPSIjNjY2IiB3aWR0aD0iMTUwIiBoZWlnaHQ9IjY1IiBuYW1lPSJlcnJvck1pZGRsZXdhcmUiIHJ4PSIzIiByeT0iMyIgY2xhc3M9ImFjdG9yIGFjdG9yLXRvcCIvPjx0ZXh0IHg9IjEzMjYiIHk9IjMyLjUiIHN0eWxlPSJ0ZXh0LWFuY2hvcjogbWlkZGxlOyBmb250LXNpemU6IDE2cHg7IGZvbnQtd2VpZ2h0OiA0MDA7IiBhbGlnbm1lbnQtYmFzZWxpbmU9ImNlbnRyYWwiIGNsYXNzPSJhY3RvciI+PHRzcGFuIHg9IjEzMjYiIGR5PSIwIj5lcnJvck1pZGRsZXdhcmU8L3RzcGFuPjwvdGV4dD48L2c+PC9nPjxnPjxsaW5lIGlkPSJhY3RvcjYyIiBkYXRhLWV0PSJsaWZlLWxpbmUiIGRhdGEtaWQ9InByb2R1Y3RzUm91dGVyIiB4MT0iMTEyNiIgeTE9IjY1IiB4Mj0iMTEyNiIgeTI9IjI5MDgiIGNsYXNzPSIyMDAiIHN0cm9rZS13aWR0aD0iMC41cHgiIHN0cm9rZT0iIzk5OSIvPjxnIGlkPSJyb290LTYyIiBkYXRhLWV0PSJwYXJ0aWNpcGFudCIgZGF0YS1pZD0icHJvZHVjdHNSb3V0ZXIiPjxyZWN0IHg9IjEwNTEiIHk9IjAiIGZpbGw9IiNlYWVhZWEiIHN0cm9rZT0iIzY2NiIgd2lkdGg9IjE1MCIgaGVpZ2h0PSI2NSIgbmFtZT0icHJvZHVjdHNSb3V0ZXIiIHJ4PSIzIiByeT0iMyIgY2xhc3M9ImFjdG9yIGFjdG9yLXRvcCIvPjx0ZXh0IHg9IjExMjYiIHk9IjMyLjUiIHN0eWxlPSJ0ZXh0LWFuY2hvcjogbWlkZGxlOyBmb250LXNpemU6IDE2cHg7IGZvbnQtd2VpZ2h0OiA0MDA7IiBhbGlnbm1lbnQtYmFzZWxpbmU9ImNlbnRyYWwiIGNsYXNzPSJhY3RvciI+PHRzcGFuIHg9IjExMjYiIGR5PSIwIj5wcm9kdWN0c1JvdXRlcjwvdHNwYW4+PC90ZXh0PjwvZz48L2c+PGc+PGxpbmUgaWQ9ImFjdG9yNjEiIGRhdGEtZXQ9ImxpZmUtbGluZSIgZGF0YS1pZD0iZXhwcmVzcyIgeDE9IjkyNiIgeTE9IjY1IiB4Mj0iOTI2IiB5Mj0iMjkwOCIgY2xhc3M9IjIwMCIgc3Ryb2tlLXdpZHRoPSIwLjVweCIgc3Ryb2tlPSIjOTk5Ii8+PGcgaWQ9InJvb3QtNjEiIGRhdGEtZXQ9InBhcnRpY2lwYW50IiBkYXRhLWlkPSJleHByZXNzIj48cmVjdCB4PSI4NTEiIHk9IjAiIGZpbGw9IiNlYWVhZWEiIHN0cm9rZT0iIzY2NiIgd2lkdGg9IjE1MCIgaGVpZ2h0PSI2NSIgbmFtZT0iZXhwcmVzcyIgcng9IjMiIHJ5PSIzIiBjbGFzcz0iYWN0b3IgYWN0b3ItdG9wIi8+PHRleHQgeD0iOTI2IiB5PSIzMi41IiBzdHlsZT0idGV4dC1hbmNob3I6IG1pZGRsZTsgZm9udC1zaXplOiAxNnB4OyBmb250LXdlaWdodDogNDAwOyIgYWxpZ25tZW50LWJhc2VsaW5lPSJjZW50cmFsIiBjbGFzcz0iYWN0b3IiPjx0c3BhbiB4PSI5MjYiIGR5PSIwIj5leHByZXNzPC90c3Bhbj48L3RleHQ+PC9nPjwvZz48Zz48bGluZSBpZD0iYWN0b3I2MCIgZGF0YS1ldD0ibGlmZS1saW5lIiBkYXRhLWlkPSJhcHAiIHgxPSI3MjYiIHkxPSI2NSIgeDI9IjcyNiIgeTI9IjI5MDgiIGNsYXNzPSIyMDAiIHN0cm9rZS13aWR0aD0iMC41cHgiIHN0cm9rZT0iIzk5OSIvPjxnIGlkPSJyb290LTYwIiBkYXRhLWV0PSJwYXJ0aWNpcGFudCIgZGF0YS1pZD0iYXBwIj48cmVjdCB4PSI2NTEiIHk9IjAiIGZpbGw9IiNlYWVhZWEiIHN0cm9rZT0iIzY2NiIgd2lkdGg9IjE1MCIgaGVpZ2h0PSI2NSIgbmFtZT0iYXBwIiByeD0iMyIgcnk9IjMiIGNsYXNzPSJhY3RvciBhY3Rvci10b3AiLz48dGV4dCB4PSI3MjYiIHk9IjMyLjUiIHN0eWxlPSJ0ZXh0LWFuY2hvcjogbWlkZGxlOyBmb250LXNpemU6IDE2cHg7IGZvbnQtd2VpZ2h0OiA0MDA7IiBhbGlnbm1lbnQtYmFzZWxpbmU9ImNlbnRyYWwiIGNsYXNzPSJhY3RvciI+PHRzcGFuIHg9IjcyNiIgZHk9IjAiPmFwcDwvdHNwYW4+PC90ZXh0PjwvZz48L2c+PGc+PGxpbmUgaWQ9ImFjdG9yNTkiIGRhdGEtZXQ9ImxpZmUtbGluZSIgZGF0YS1pZD0ibW9uZ29vc2UiIHgxPSI1MjYiIHkxPSI2NSIgeDI9IjUyNiIgeTI9IjI5MDgiIGNsYXNzPSIyMDAiIHN0cm9rZS13aWR0aD0iMC41cHgiIHN0cm9rZT0iIzk5OSIvPjxnIGlkPSJyb290LTU5IiBkYXRhLWV0PSJwYXJ0aWNpcGFudCIgZGF0YS1pZD0ibW9uZ29vc2UiPjxyZWN0IHg9IjQ1MSIgeT0iMCIgZmlsbD0iI2VhZWFlYSIgc3Ryb2tlPSIjNjY2IiB3aWR0aD0iMTUwIiBoZWlnaHQ9IjY1IiBuYW1lPSJtb25nb29zZSIgcng9IjMiIHJ5PSIzIiBjbGFzcz0iYWN0b3IgYWN0b3ItdG9wIi8+PHRleHQgeD0iNTI2IiB5PSIzMi41IiBzdHlsZT0idGV4dC1hbmNob3I6IG1pZGRsZTsgZm9udC1zaXplOiAxNnB4OyBmb250LXdlaWdodDogNDAwOyIgYWxpZ25tZW50LWJhc2VsaW5lPSJjZW50cmFsIiBjbGFzcz0iYWN0b3IiPjx0c3BhbiB4PSI1MjYiIGR5PSIwIj5tb25nb29zZTwvdHNwYW4+PC90ZXh0PjwvZz48L2c+PGc+PGxpbmUgaWQ9ImFjdG9yNTgiIGRhdGEtZXQ9ImxpZmUtbGluZSIgZGF0YS1pZD0iY29ubmVjdFRvRGF0YWJhc2UiIHgxPSIyODEiIHkxPSI2NSIgeDI9IjI4MSIgeTI9IjI5MDgiIGNsYXNzPSIyMDAiIHN0cm9rZS13aWR0aD0iMC41cHgiIHN0cm9rZT0iIzk5OSIvPjxnIGlkPSJyb290LTU4IiBkYXRhLWV0PSJwYXJ0aWNpcGFudCIgZGF0YS1pZD0iY29ubmVjdFRvRGF0YWJhc2UiPjxyZWN0IHg9IjIwMCIgeT0iMCIgZmlsbD0iI2VhZWFlYSIgc3Ryb2tlPSIjNjY2IiB3aWR0aD0iMTYyIiBoZWlnaHQ9IjY1IiBuYW1lPSJjb25uZWN0VG9EYXRhYmFzZSIgcng9IjMiIHJ5PSIzIiBjbGFzcz0iYWN0b3IgYWN0b3ItdG9wIi8+PHRleHQgeD0iMjgxIiB5PSIzMi41IiBzdHlsZT0idGV4dC1hbmNob3I6IG1pZGRsZTsgZm9udC1zaXplOiAxNnB4OyBmb250LXdlaWdodDogNDAwOyIgYWxpZ25tZW50LWJhc2VsaW5lPSJjZW50cmFsIiBjbGFzcz0iYWN0b3IiPjx0c3BhbiB4PSIyODEiIGR5PSIwIj5jb25uZWN0VG9EYXRhYmFzZTwvdHNwYW4+PC90ZXh0PjwvZz48L2c+PGc+PGxpbmUgaWQ9ImFjdG9yNTciIGRhdGEtZXQ9ImxpZmUtbGluZSIgZGF0YS1pZD0iZG90ZW52IiB4MT0iNzUiIHkxPSI2NSIgeDI9Ijc1IiB5Mj0iMjkwOCIgY2xhc3M9IjIwMCIgc3Ryb2tlLXdpZHRoPSIwLjVweCIgc3Ryb2tlPSIjOTk5Ii8+PGcgaWQ9InJvb3QtNTciIGRhdGEtZXQ9InBhcnRpY2lwYW50IiBkYXRhLWlkPSJkb3RlbnYiPjxyZWN0IHg9IjAiIHk9IjAiIGZpbGw9IiNlYWVhZWEiIHN0cm9rZT0iIzY2NiIgd2lkdGg9IjE1MCIgaGVpZ2h0PSI2NSIgbmFtZT0iZG90ZW52IiByeD0iMyIgcnk9IjMiIGNsYXNzPSJhY3RvciBhY3Rvci10b3AiLz48dGV4dCB4PSI3NSIgeT0iMzIuNSIgc3R5bGU9InRleHQtYW5jaG9yOiBtaWRkbGU7IGZvbnQtc2l6ZTogMTZweDsgZm9udC13ZWlnaHQ6IDQwMDsiIGFsaWdubWVudC1iYXNlbGluZT0iY2VudHJhbCIgY2xhc3M9ImFjdG9yIj48dHNwYW4geD0iNzUiIGR5PSIwIj5kb3RlbnY8L3RzcGFuPjwvdGV4dD48L2c+PC9nPjxzdHlsZT4jZ3JhcGgtZGl2e2ZvbnQtZmFtaWx5OiJ0cmVidWNoZXQgbXMiLHZlcmRhbmEsYXJpYWwsc2Fucy1zZXJpZjtmb250LXNpemU6MTJweDtmaWxsOiMzMzM7fSNncmFwaC1kaXYgLmVycm9yLWljb257ZmlsbDpoc2woNjAsIDkwJSwgMTAwJSk7fSNncmFwaC1kaXYgLmVycm9yLXRleHR7ZmlsbDpyZ2IoMCwgMCwgMCk7c3Ryb2tlOnJnYigwLCAwLCAwKTt9I2dyYXBoLWRpdiAuZWRnZS10aGlja25lc3Mtbm9ybWFse3N0cm9rZS13aWR0aDoycHg7fSNncmFwaC1kaXYgLmVkZ2UtdGhpY2tuZXNzLXRoaWNre3N0cm9rZS13aWR0aDozLjVweDt9I2dyYXBoLWRpdiAuZWRnZS1wYXR0ZXJuLXNvbGlke3N0cm9rZS1kYXNoYXJyYXk6MDt9I2dyYXBoLWRpdiAuZWRnZS1wYXR0ZXJuLWRhc2hlZHtzdHJva2UtZGFzaGFycmF5OjM7fSNncmFwaC1kaXYgLmVkZ2UtcGF0dGVybi1kb3R0ZWR7c3Ryb2tlLWRhc2hhcnJheToyO30jZ3JhcGgtZGl2IC5tYXJrZXJ7ZmlsbDojMGIwYjBiO3N0cm9rZTojMGIwYjBiO30jZ3JhcGgtZGl2IC5tYXJrZXIuY3Jvc3N7c3Ryb2tlOiMwYjBiMGI7fSNncmFwaC1kaXYgc3Zne2ZvbnQtZmFtaWx5OiJ0cmVidWNoZXQgbXMiLHZlcmRhbmEsYXJpYWwsc2Fucy1zZXJpZjtmb250LXNpemU6MTJweDt9I2dyYXBoLWRpdiAuYWN0b3J7c3Ryb2tlOiNCQ0JDRkI7ZmlsbDojRUNFQ0ZFO30jZ3JhcGgtZGl2IHRleHQuYWN0b3ImZ3Q7dHNwYW57ZmlsbDojMzMzO3N0cm9rZTpub25lO30jZ3JhcGgtZGl2IC5hY3Rvci1saW5le3N0cm9rZTpncmV5O30jZ3JhcGgtZGl2IC5tZXNzYWdlTGluZTB7c3Ryb2tlLXdpZHRoOjEuNTtzdHJva2UtZGFzaGFycmF5Om5vbmU7c3Ryb2tlOiMzMzM7fSNncmFwaC1kaXYgLm1lc3NhZ2VMaW5lMXtzdHJva2Utd2lkdGg6MS41O3N0cm9rZS1kYXNoYXJyYXk6MiwyO3N0cm9rZTojMzMzO30jZ3JhcGgtZGl2ICNhcnJvd2hlYWQgcGF0aHtmaWxsOiMzMzM7c3Ryb2tlOiMzMzM7fSNncmFwaC1kaXYgLnNlcXVlbmNlTnVtYmVye2ZpbGw6I2Y0ZjRmNDt9I2dyYXBoLWRpdiAjc2VxdWVuY2VudW1iZXJ7ZmlsbDojMzMzO30jZ3JhcGgtZGl2ICNjcm9zc2hlYWQgcGF0aHtmaWxsOiMzMzM7c3Ryb2tlOiMzMzM7fSNncmFwaC1kaXYgLm1lc3NhZ2VUZXh0e2ZpbGw6IzMzMztzdHJva2U6bm9uZTt9I2dyYXBoLWRpdiAubGFiZWxCb3h7c3Ryb2tlOiNCQ0JDRkI7ZmlsbDojRUNFQ0ZFO30jZ3JhcGgtZGl2IC5sYWJlbFRleHQsI2dyYXBoLWRpdiAubGFiZWxUZXh0Jmd0O3RzcGFue2ZpbGw6IzMzMztzdHJva2U6bm9uZTt9I2dyYXBoLWRpdiAubG9vcFRleHQsI2dyYXBoLWRpdiAubG9vcFRleHQmZ3Q7dHNwYW57ZmlsbDojMzMzO3N0cm9rZTpub25lO30jZ3JhcGgtZGl2IC5sb29wTGluZXtzdHJva2Utd2lkdGg6MnB4O3N0cm9rZS1kYXNoYXJyYXk6MiwyO3N0cm9rZTojQkNCQ0ZCO2ZpbGw6I0JDQkNGQjt9I2dyYXBoLWRpdiAubm90ZXtzdHJva2U6aHNsKDUyLjY4MjkyNjgyOTMsIDYwJSwgNzMuOTIxNTY4NjI3NSUpO2ZpbGw6I2ZmZjVhZDt9I2dyYXBoLWRpdiAubm90ZVRleHQsI2dyYXBoLWRpdiAubm90ZVRleHQmZ3Q7dHNwYW57ZmlsbDojMzMzO3N0cm9rZTpub25lO30jZ3JhcGgtZGl2IC5hY3RpdmF0aW9uMHtmaWxsOiNFOUU5RjE7c3Ryb2tlOmhzbCgyNDAsIDIyLjIyMjIyMjIyMjIlLCA4Mi45NDExNzY0NzA2JSk7fSNncmFwaC1kaXYgLmFjdGl2YXRpb24xe2ZpbGw6I0U5RTlGMTtzdHJva2U6aHNsKDI0MCwgMjIuMjIyMjIyMjIyMiUsIDgyLjk0MTE3NjQ3MDYlKTt9I2dyYXBoLWRpdiAuYWN0aXZhdGlvbjJ7ZmlsbDojRTlFOUYxO3N0cm9rZTpoc2woMjQwLCAyMi4yMjIyMjIyMjIyJSwgODIuOTQxMTc2NDcwNiUpO30jZ3JhcGgtZGl2IC5hY3RvclBvcHVwTWVudXtwb3NpdGlvbjphYnNvbHV0ZTt9I2dyYXBoLWRpdiAuYWN0b3JQb3B1cE1lbnVQYW5lbHtwb3NpdGlvbjphYnNvbHV0ZTtmaWxsOiNFQ0VDRkU7Ym94LXNoYWRvdzowcHggOHB4IDE2cHggMHB4IHJnYmEoMCwwLDAsMC4yKTtmaWx0ZXI6ZHJvcC1zaGFkb3coM3B4IDVweCAycHggcmdiKDAgMCAwIC8gMC40KSk7fSNncmFwaC1kaXYgLmFjdG9yLW1hbiBsaW5le3N0cm9rZTojQkNCQ0ZCO2ZpbGw6I0VDRUNGRTt9I2dyYXBoLWRpdiAuYWN0b3ItbWFuIGNpcmNsZSwjZ3JhcGgtZGl2IGxpbmV7c3Ryb2tlOiNCQ0JDRkI7ZmlsbDojRUNFQ0ZFO3N0cm9rZS13aWR0aDoycHg7fSNncmFwaC1kaXYgOnJvb3R7LS1tZXJtYWlkLWZvbnQtZmFtaWx5OiJ0cmVidWNoZXQgbXMiLHZlcmRhbmEsYXJpYWwsc2Fucy1zZXJpZjt9PC9zdHlsZT48Zy8+PGRlZnM+PHN5bWJvbCBpZD0iY29tcHV0ZXIiIHdpZHRoPSIyNCIgaGVpZ2h0PSIyNCI+PHBhdGggdHJhbnNmb3JtPSJzY2FsZSguNSkiIGQ9Ik0yIDJ2MTNoMjB2LTEzaC0yMHptMTggMTFoLTE2di05aDE2djl6bS0xMC4yMjggNmwuNDY2LTFoMy41MjRsLjQ2NyAxaC00LjQ1N3ptMTQuMjI4IDNoLTI0bDItNmgyLjEwNGwtMS4zMyA0aDE4LjQ1bC0xLjI5Ny00aDIuMDczbDIgNnptLTUtMTBoLTE0di03aDE0djd6Ii8+PC9zeW1ib2w+PC9kZWZzPjxkZWZzPjxzeW1ib2wgaWQ9ImRhdGFiYXNlIiBmaWxsLXJ1bGU9ImV2ZW5vZGQiIGNsaXAtcnVsZT0iZXZlbm9kZCI+PHBhdGggdHJhbnNmb3JtPSJzY2FsZSguNSkiIGQ9Ik0xMi4yNTguMDAxbC4yNTYuMDA0LjI1NS4wMDUuMjUzLjAwOC4yNTEuMDEuMjQ5LjAxMi4yNDcuMDE1LjI0Ni4wMTYuMjQyLjAxOS4yNDEuMDIuMjM5LjAyMy4yMzYuMDI0LjIzMy4wMjcuMjMxLjAyOC4yMjkuMDMxLjIyNS4wMzIuMjIzLjAzNC4yMi4wMzYuMjE3LjAzOC4yMTQuMDQuMjExLjA0MS4yMDguMDQzLjIwNS4wNDUuMjAxLjA0Ni4xOTguMDQ4LjE5NC4wNS4xOTEuMDUxLjE4Ny4wNTMuMTgzLjA1NC4xOC4wNTYuMTc1LjA1Ny4xNzIuMDU5LjE2OC4wNi4xNjMuMDYxLjE2LjA2My4xNTUuMDY0LjE1LjA2Ni4wNzQuMDMzLjA3My4wMzMuMDcxLjAzNC4wNy4wMzQuMDY5LjAzNS4wNjguMDM1LjA2Ny4wMzUuMDY2LjAzNS4wNjQuMDM2LjA2NC4wMzYuMDYyLjAzNi4wNi4wMzYuMDYuMDM3LjA1OC4wMzcuMDU4LjAzNy4wNTUuMDM4LjA1NS4wMzguMDUzLjAzOC4wNTIuMDM4LjA1MS4wMzkuMDUuMDM5LjA0OC4wMzkuMDQ3LjAzOS4wNDUuMDQuMDQ0LjA0LjA0My4wNC4wNDEuMDQuMDQuMDQxLjAzOS4wNDEuMDM3LjA0MS4wMzYuMDQxLjAzNC4wNDEuMDMzLjA0Mi4wMzIuMDQyLjAzLjA0Mi4wMjkuMDQyLjAyNy4wNDIuMDI2LjA0My4wMjQuMDQzLjAyMy4wNDMuMDIxLjA0My4wMi4wNDMuMDE4LjA0NC4wMTcuMDQzLjAxNS4wNDQuMDEzLjA0NC4wMTIuMDQ0LjAxMS4wNDUuMDA5LjA0NC4wMDcuMDQ1LjAwNi4wNDUuMDA0LjA0NS4wMDIuMDQ1LjAwMS4wNDV2MTdsLS4wMDEuMDQ1LS4wMDIuMDQ1LS4wMDQuMDQ1LS4wMDYuMDQ1LS4wMDcuMDQ1LS4wMDkuMDQ0LS4wMTEuMDQ1LS4wMTIuMDQ0LS4wMTMuMDQ0LS4wMTUuMDQ0LS4wMTcuMDQzLS4wMTguMDQ0LS4wMi4wNDMtLjAyMS4wNDMtLjAyMy4wNDMtLjAyNC4wNDMtLjAyNi4wNDMtLjAyNy4wNDItLjAyOS4wNDItLjAzLjA0Mi0uMDMyLjA0Mi0uMDMzLjA0Mi0uMDM0LjA0MS0uMDM2LjA0MS0uMDM3LjA0MS0uMDM5LjA0MS0uMDQuMDQxLS4wNDEuMDQtLjA0My4wNC0uMDQ0LjA0LS4wNDUuMDQtLjA0Ny4wMzktLjA0OC4wMzktLjA1LjAzOS0uMDUxLjAzOS0uMDUyLjAzOC0uMDUzLjAzOC0uMDU1LjAzOC0uMDU1LjAzOC0uMDU4LjAzNy0uMDU4LjAzNy0uMDYuMDM3LS4wNi4wMzYtLjA2Mi4wMzYtLjA2NC4wMzYtLjA2NC4wMzYtLjA2Ni4wMzUtLjA2Ny4wMzUtLjA2OC4wMzUtLjA2OS4wMzUtLjA3LjAzNC0uMDcxLjAzNC0uMDczLjAzMy0uMDc0LjAzMy0uMTUuMDY2LS4xNTUuMDY0LS4xNi4wNjMtLjE2My4wNjEtLjE2OC4wNi0uMTcyLjA1OS0uMTc1LjA1Ny0uMTguMDU2LS4xODMuMDU0LS4xODcuMDUzLS4xOTEuMDUxLS4xOTQuMDUtLjE5OC4wNDgtLjIwMS4wNDYtLjIwNS4wNDUtLjIwOC4wNDMtLjIxMS4wNDEtLjIxNC4wNC0uMjE3LjAzOC0uMjIuMDM2LS4yMjMuMDM0LS4yMjUuMDMyLS4yMjkuMDMxLS4yMzEuMDI4LS4yMzMuMDI3LS4yMzYuMDI0LS4yMzkuMDIzLS4yNDEuMDItLjI0Mi4wMTktLjI0Ni4wMTYtLjI0Ny4wMTUtLjI0OS4wMTItLjI1MS4wMS0uMjUzLjAwOC0uMjU1LjAwNS0uMjU2LjAwNC0uMjU4LjAwMS0uMjU4LS4wMDEtLjI1Ni0uMDA0LS4yNTUtLjAwNS0uMjUzLS4wMDgtLjI1MS0uMDEtLjI0OS0uMDEyLS4yNDctLjAxNS0uMjQ1LS4wMTYtLjI0My0uMDE5LS4yNDEtLjAyLS4yMzgtLjAyMy0uMjM2LS4wMjQtLjIzNC0uMDI3LS4yMzEtLjAyOC0uMjI4LS4wMzEtLjIyNi0uMDMyLS4yMjMtLjAzNC0uMjItLjAzNi0uMjE3LS4wMzgtLjIxNC0uMDQtLjIxMS0uMDQxLS4yMDgtLjA0My0uMjA0LS4wNDUtLjIwMS0uMDQ2LS4xOTgtLjA0OC0uMTk1LS4wNS0uMTktLjA1MS0uMTg3LS4wNTMtLjE4NC0uMDU0LS4xNzktLjA1Ni0uMTc2LS4wNTctLjE3Mi0uMDU5LS4xNjctLjA2LS4xNjQtLjA2MS0uMTU5LS4wNjMtLjE1NS0uMDY0LS4xNTEtLjA2Ni0uMDc0LS4wMzMtLjA3Mi0uMDMzLS4wNzItLjAzNC0uMDctLjAzNC0uMDY5LS4wMzUtLjA2OC0uMDM1LS4wNjctLjAzNS0uMDY2LS4wMzUtLjA2NC0uMDM2LS4wNjMtLjAzNi0uMDYyLS4wMzYtLjA2MS0uMDM2LS4wNi0uMDM3LS4wNTgtLjAzNy0uMDU3LS4wMzctLjA1Ni0uMDM4LS4wNTUtLjAzOC0uMDUzLS4wMzgtLjA1Mi0uMDM4LS4wNTEtLjAzOS0uMDQ5LS4wMzktLjA0OS0uMDM5LS4wNDYtLjAzOS0uMDQ2LS4wNC0uMDQ0LS4wNC0uMDQzLS4wNC0uMDQxLS4wNC0uMDQtLjA0MS0uMDM5LS4wNDEtLjAzNy0uMDQxLS4wMzYtLjA0MS0uMDM0LS4wNDEtLjAzMy0uMDQyLS4wMzItLjA0Mi0uMDMtLjA0Mi0uMDI5LS4wNDItLjAyNy0uMDQyLS4wMjYtLjA0My0uMDI0LS4wNDMtLjAyMy0uMDQzLS4wMjEtLjA0My0uMDItLjA0My0uMDE4LS4wNDQtLjAxNy0uMDQzLS4wMTUtLjA0NC0uMDEzLS4wNDQtLjAxMi0uMDQ0LS4wMTEtLjA0NS0uMDA5LS4wNDQtLjAwNy0uMDQ1LS4wMDYtLjA0NS0uMDA0LS4wNDUtLjAwMi0uMDQ1LS4wMDEtLjA0NXYtMTdsLjAwMS0uMDQ1LjAwMi0uMDQ1LjAwNC0uMDQ1LjAwNi0uMDQ1LjAwNy0uMDQ1LjAwOS0uMDQ0LjAxMS0uMDQ1LjAxMi0uMDQ0LjAxMy0uMDQ0LjAxNS0uMDQ0LjAxNy0uMDQzLjAxOC0uMDQ0LjAyLS4wNDMuMDIxLS4wNDMuMDIzLS4wNDMuMDI0LS4wNDMuMDI2LS4wNDMuMDI3LS4wNDIuMDI5LS4wNDIuMDMtLjA0Mi4wMzItLjA0Mi4wMzMtLjA0Mi4wMzQtLjA0MS4wMzYtLjA0MS4wMzctLjA0MS4wMzktLjA0MS4wNC0uMDQxLjA0MS0uMDQuMDQzLS4wNC4wNDQtLjA0LjA0Ni0uMDQuMDQ2LS4wMzkuMDQ5LS4wMzkuMDQ5LS4wMzkuMDUxLS4wMzkuMDUyLS4wMzguMDUzLS4wMzguMDU1LS4wMzguMDU2LS4wMzguMDU3LS4wMzcuMDU4LS4wMzcuMDYtLjAzNy4wNjEtLjAzNi4wNjItLjAzNi4wNjMtLjAzNi4wNjQtLjAzNi4wNjYtLjAzNS4wNjctLjAzNS4wNjgtLjAzNS4wNjktLjAzNS4wNy0uMDM0LjA3Mi0uMDM0LjA3Mi0uMDMzLjA3NC0uMDMzLjE1MS0uMDY2LjE1NS0uMDY0LjE1OS0uMDYzLjE2NC0uMDYxLjE2Ny0uMDYuMTcyLS4wNTkuMTc2LS4wNTcuMTc5LS4wNTYuMTg0LS4wNTQuMTg3LS4wNTMuMTktLjA1MS4xOTUtLjA1LjE5OC0uMDQ4LjIwMS0uMDQ2LjIwNC0uMDQ1LjIwOC0uMDQzLjIxMS0uMDQxLjIxNC0uMDQuMjE3LS4wMzguMjItLjAzNi4yMjMtLjAzNC4yMjYtLjAzMi4yMjgtLjAzMS4yMzEtLjAyOC4yMzQtLjAyNy4yMzYtLjAyNC4yMzgtLjAyMy4yNDEtLjAyLjI0My0uMDE5LjI0NS0uMDE2LjI0Ny0uMDE1LjI0OS0uMDEyLjI1MS0uMDEuMjUzLS4wMDguMjU1LS4wMDUuMjU2LS4wMDQuMjU4LS4wMDEuMjU4LjAwMXptLTkuMjU4IDIwLjQ5OXYuMDFsLjAwMS4wMjEuMDAzLjAyMS4wMDQuMDIyLjAwNS4wMjEuMDA2LjAyMi4wMDcuMDIyLjAwOS4wMjMuMDEuMDIyLjAxMS4wMjMuMDEyLjAyMy4wMTMuMDIzLjAxNS4wMjMuMDE2LjAyNC4wMTcuMDIzLjAxOC4wMjQuMDE5LjAyNC4wMjEuMDI0LjAyMi4wMjUuMDIzLjAyNC4wMjQuMDI1LjA1Mi4wNDkuMDU2LjA1LjA2MS4wNTEuMDY2LjA1MS4wNy4wNTEuMDc1LjA1MS4wNzkuMDUyLjA4NC4wNTIuMDg4LjA1Mi4wOTIuMDUyLjA5Ny4wNTIuMTAyLjA1MS4xMDUuMDUyLjExLjA1Mi4xMTQuMDUxLjExOS4wNTEuMTIzLjA1MS4xMjcuMDUuMTMxLjA1LjEzNS4wNS4xMzkuMDQ4LjE0NC4wNDkuMTQ3LjA0Ny4xNTIuMDQ3LjE1NS4wNDcuMTYuMDQ1LjE2My4wNDUuMTY3LjA0My4xNzEuMDQzLjE3Ni4wNDEuMTc4LjA0MS4xODMuMDM5LjE4Ny4wMzkuMTkuMDM3LjE5NC4wMzUuMTk3LjAzNS4yMDIuMDMzLjIwNC4wMzEuMjA5LjAzLjIxMi4wMjkuMjE2LjAyNy4yMTkuMDI1LjIyMi4wMjQuMjI2LjAyMS4yMy4wMi4yMzMuMDE4LjIzNi4wMTYuMjQuMDE1LjI0My4wMTIuMjQ2LjAxLjI0OS4wMDguMjUzLjAwNS4yNTYuMDA0LjI1OS4wMDEuMjYtLjAwMS4yNTctLjAwNC4yNTQtLjAwNS4yNS0uMDA4LjI0Ny0uMDExLjI0NC0uMDEyLjI0MS0uMDE0LjIzNy0uMDE2LjIzMy0uMDE4LjIzMS0uMDIxLjIyNi0uMDIxLjIyNC0uMDI0LjIyLS4wMjYuMjE2LS4wMjcuMjEyLS4wMjguMjEtLjAzMS4yMDUtLjAzMS4yMDItLjAzNC4xOTgtLjAzNC4xOTQtLjAzNi4xOTEtLjAzNy4xODctLjAzOS4xODMtLjA0LjE3OS0uMDQuMTc1LS4wNDIuMTcyLS4wNDMuMTY4LS4wNDQuMTYzLS4wNDUuMTYtLjA0Ni4xNTUtLjA0Ni4xNTItLjA0Ny4xNDgtLjA0OC4xNDMtLjA0OS4xMzktLjA0OS4xMzYtLjA1LjEzMS0uMDUuMTI2LS4wNS4xMjMtLjA1MS4xMTgtLjA1Mi4xMTQtLjA1MS4xMS0uMDUyLjEwNi0uMDUyLjEwMS0uMDUyLjA5Ni0uMDUyLjA5Mi0uMDUyLjA4OC0uMDUzLjA4My0uMDUxLjA3OS0uMDUyLjA3NC0uMDUyLjA3LS4wNTEuMDY1LS4wNTEuMDYtLjA1MS4wNTYtLjA1LjA1MS0uMDUuMDIzLS4wMjQuMDIzLS4wMjUuMDIxLS4wMjQuMDItLjAyNC4wMTktLjAyNC4wMTgtLjAyNC4wMTctLjAyNC4wMTUtLjAyMy4wMTQtLjAyNC4wMTMtLjAyMy4wMTItLjAyMy4wMS0uMDIzLjAxLS4wMjIuMDA4LS4wMjIuMDA2LS4wMjIuMDA2LS4wMjIuMDA0LS4wMjIuMDA0LS4wMjEuMDAxLS4wMjEuMDAxLS4wMjF2LTQuMTI3bC0uMDc3LjA1NS0uMDguMDUzLS4wODMuMDU0LS4wODUuMDUzLS4wODcuMDUyLS4wOS4wNTItLjA5My4wNTEtLjA5NS4wNS0uMDk3LjA1LS4xLjA0OS0uMTAyLjA0OS0uMTA1LjA0OC0uMTA2LjA0Ny0uMTA5LjA0Ny0uMTExLjA0Ni0uMTE0LjA0NS0uMTE1LjA0NS0uMTE4LjA0NC0uMTIuMDQzLS4xMjIuMDQyLS4xMjQuMDQyLS4xMjYuMDQxLS4xMjguMDQtLjEzLjA0LS4xMzIuMDM4LS4xMzQuMDM4LS4xMzUuMDM3LS4xMzguMDM3LS4xMzkuMDM1LS4xNDIuMDM1LS4xNDMuMDM0LS4xNDQuMDMzLS4xNDcuMDMyLS4xNDguMDMxLS4xNS4wMy0uMTUxLjAzLS4xNTMuMDI5LS4xNTQuMDI3LS4xNTYuMDI3LS4xNTguMDI2LS4xNTkuMDI1LS4xNjEuMDI0LS4xNjIuMDIzLS4xNjMuMDIyLS4xNjUuMDIxLS4xNjYuMDItLjE2Ny4wMTktLjE2OS4wMTgtLjE2OS4wMTctLjE3MS4wMTYtLjE3My4wMTUtLjE3My4wMTQtLjE3NS4wMTMtLjE3NS4wMTItLjE3Ny4wMTEtLjE3OC4wMS0uMTc5LjAwOC0uMTc5LjAwOC0uMTgxLjAwNi0uMTgyLjAwNS0uMTgyLjAwNC0uMTg0LjAwMy0uMTg0LjAwMmgtLjM3bC0uMTg0LS4wMDItLjE4NC0uMDAzLS4xODItLjAwNC0uMTgyLS4wMDUtLjE4MS0uMDA2LS4xNzktLjAwOC0uMTc5LS4wMDgtLjE3OC0uMDEtLjE3Ni0uMDExLS4xNzYtLjAxMi0uMTc1LS4wMTMtLjE3My0uMDE0LS4xNzItLjAxNS0uMTcxLS4wMTYtLjE3LS4wMTctLjE2OS0uMDE4LS4xNjctLjAxOS0uMTY2LS4wMi0uMTY1LS4wMjEtLjE2My0uMDIyLS4xNjItLjAyMy0uMTYxLS4wMjQtLjE1OS0uMDI1LS4xNTctLjAyNi0uMTU2LS4wMjctLjE1NS0uMDI3LS4xNTMtLjAyOS0uMTUxLS4wMy0uMTUtLjAzLS4xNDgtLjAzMS0uMTQ2LS4wMzItLjE0NS0uMDMzLS4xNDMtLjAzNC0uMTQxLS4wMzUtLjE0LS4wMzUtLjEzNy0uMDM3LS4xMzYtLjAzNy0uMTM0LS4wMzgtLjEzMi0uMDM4LS4xMy0uMDQtLjEyOC0uMDQtLjEyNi0uMDQxLS4xMjQtLjA0Mi0uMTIyLS4wNDItLjEyLS4wNDQtLjExNy0uMDQzLS4xMTYtLjA0NS0uMTEzLS4wNDUtLjExMi0uMDQ2LS4xMDktLjA0Ny0uMTA2LS4wNDctLjEwNS0uMDQ4LS4xMDItLjA0OS0uMS0uMDQ5LS4wOTctLjA1LS4wOTUtLjA1LS4wOTMtLjA1Mi0uMDktLjA1MS0uMDg3LS4wNTItLjA4NS0uMDUzLS4wODMtLjA1NC0uMDgtLjA1NC0uMDc3LS4wNTR2NC4xMjd6bTAtNS42NTR2LjAxMWwuMDAxLjAyMS4wMDMuMDIxLjAwNC4wMjEuMDA1LjAyMi4wMDYuMDIyLjAwNy4wMjIuMDA5LjAyMi4wMS4wMjIuMDExLjAyMy4wMTIuMDIzLjAxMy4wMjMuMDE1LjAyNC4wMTYuMDIzLjAxNy4wMjQuMDE4LjAyNC4wMTkuMDI0LjAyMS4wMjQuMDIyLjAyNC4wMjMuMDI1LjAyNC4wMjQuMDUyLjA1LjA1Ni4wNS4wNjEuMDUuMDY2LjA1MS4wNy4wNTEuMDc1LjA1Mi4wNzkuMDUxLjA4NC4wNTIuMDg4LjA1Mi4wOTIuMDUyLjA5Ny4wNTIuMTAyLjA1Mi4xMDUuMDUyLjExLjA1MS4xMTQuMDUxLjExOS4wNTIuMTIzLjA1LjEyNy4wNTEuMTMxLjA1LjEzNS4wNDkuMTM5LjA0OS4xNDQuMDQ4LjE0Ny4wNDguMTUyLjA0Ny4xNTUuMDQ2LjE2LjA0NS4xNjMuMDQ1LjE2Ny4wNDQuMTcxLjA0Mi4xNzYuMDQyLjE3OC4wNC4xODMuMDQuMTg3LjAzOC4xOS4wMzcuMTk0LjAzNi4xOTcuMDM0LjIwMi4wMzMuMjA0LjAzMi4yMDkuMDMuMjEyLjAyOC4yMTYuMDI3LjIxOS4wMjUuMjIyLjAyNC4yMjYuMDIyLjIzLjAyLjIzMy4wMTguMjM2LjAxNi4yNC4wMTQuMjQzLjAxMi4yNDYuMDEuMjQ5LjAwOC4yNTMuMDA2LjI1Ni4wMDMuMjU5LjAwMS4yNi0uMDAxLjI1Ny0uMDAzLjI1NC0uMDA2LjI1LS4wMDguMjQ3LS4wMS4yNDQtLjAxMi4yNDEtLjAxNS4yMzctLjAxNi4yMzMtLjAxOC4yMzEtLjAyLjIyNi0uMDIyLjIyNC0uMDI0LjIyLS4wMjUuMjE2LS4wMjcuMjEyLS4wMjkuMjEtLjAzLjIwNS0uMDMyLjIwMi0uMDMzLjE5OC0uMDM1LjE5NC0uMDM2LjE5MS0uMDM3LjE4Ny0uMDM5LjE4My0uMDM5LjE3OS0uMDQxLjE3NS0uMDQyLjE3Mi0uMDQzLjE2OC0uMDQ0LjE2My0uMDQ1LjE2LS4wNDUuMTU1LS4wNDcuMTUyLS4wNDcuMTQ4LS4wNDguMTQzLS4wNDguMTM5LS4wNS4xMzYtLjA0OS4xMzEtLjA1LjEyNi0uMDUxLjEyMy0uMDUxLjExOC0uMDUxLjExNC0uMDUyLjExLS4wNTIuMTA2LS4wNTIuMTAxLS4wNTIuMDk2LS4wNTIuMDkyLS4wNTIuMDg4LS4wNTIuMDgzLS4wNTIuMDc5LS4wNTIuMDc0LS4wNTEuMDctLjA1Mi4wNjUtLjA1MS4wNi0uMDUuMDU2LS4wNTEuMDUxLS4wNDkuMDIzLS4wMjUuMDIzLS4wMjQuMDIxLS4wMjUuMDItLjAyNC4wMTktLjAyNC4wMTgtLjAyNC4wMTctLjAyNC4wMTUtLjAyMy4wMTQtLjAyMy4wMTMtLjAyNC4wMTItLjAyMi4wMS0uMDIzLjAxLS4wMjMuMDA4LS4wMjIuMDA2LS4wMjIuMDA2LS4wMjIuMDA0LS4wMjEuMDA0LS4wMjIuMDAxLS4wMjEuMDAxLS4wMjF2LTQuMTM5bC0uMDc3LjA1NC0uMDguMDU0LS4wODMuMDU0LS4wODUuMDUyLS4wODcuMDUzLS4wOS4wNTEtLjA5My4wNTEtLjA5NS4wNTEtLjA5Ny4wNS0uMS4wNDktLjEwMi4wNDktLjEwNS4wNDgtLjEwNi4wNDctLjEwOS4wNDctLjExMS4wNDYtLjExNC4wNDUtLjExNS4wNDQtLjExOC4wNDQtLjEyLjA0NC0uMTIyLjA0Mi0uMTI0LjA0Mi0uMTI2LjA0MS0uMTI4LjA0LS4xMy4wMzktLjEzMi4wMzktLjEzNC4wMzgtLjEzNS4wMzctLjEzOC4wMzYtLjEzOS4wMzYtLjE0Mi4wMzUtLjE0My4wMzMtLjE0NC4wMzMtLjE0Ny4wMzMtLjE0OC4wMzEtLjE1LjAzLS4xNTEuMDMtLjE1My4wMjgtLjE1NC4wMjgtLjE1Ni4wMjctLjE1OC4wMjYtLjE1OS4wMjUtLjE2MS4wMjQtLjE2Mi4wMjMtLjE2My4wMjItLjE2NS4wMjEtLjE2Ni4wMi0uMTY3LjAxOS0uMTY5LjAxOC0uMTY5LjAxNy0uMTcxLjAxNi0uMTczLjAxNS0uMTczLjAxNC0uMTc1LjAxMy0uMTc1LjAxMi0uMTc3LjAxMS0uMTc4LjAwOS0uMTc5LjAwOS0uMTc5LjAwNy0uMTgxLjAwNy0uMTgyLjAwNS0uMTgyLjAwNC0uMTg0LjAwMy0uMTg0LjAwMmgtLjM3bC0uMTg0LS4wMDItLjE4NC0uMDAzLS4xODItLjAwNC0uMTgyLS4wMDUtLjE4MS0uMDA3LS4xNzktLjAwNy0uMTc5LS4wMDktLjE3OC0uMDA5LS4xNzYtLjAxMS0uMTc2LS4wMTItLjE3NS0uMDEzLS4xNzMtLjAxNC0uMTcyLS4wMTUtLjE3MS0uMDE2LS4xNy0uMDE3LS4xNjktLjAxOC0uMTY3LS4wMTktLjE2Ni0uMDItLjE2NS0uMDIxLS4xNjMtLjAyMi0uMTYyLS4wMjMtLjE2MS0uMDI0LS4xNTktLjAyNS0uMTU3LS4wMjYtLjE1Ni0uMDI3LS4xNTUtLjAyOC0uMTUzLS4wMjgtLjE1MS0uMDMtLjE1LS4wMy0uMTQ4LS4wMzEtLjE0Ni0uMDMzLS4xNDUtLjAzMy0uMTQzLS4wMzMtLjE0MS0uMDM1LS4xNC0uMDM2LS4xMzctLjAzNi0uMTM2LS4wMzctLjEzNC0uMDM4LS4xMzItLjAzOS0uMTMtLjAzOS0uMTI4LS4wNC0uMTI2LS4wNDEtLjEyNC0uMDQyLS4xMjItLjA0My0uMTItLjA0My0uMTE3LS4wNDQtLjExNi0uMDQ0LS4xMTMtLjA0Ni0uMTEyLS4wNDYtLjEwOS0uMDQ2LS4xMDYtLjA0Ny0uMTA1LS4wNDgtLjEwMi0uMDQ5LS4xLS4wNDktLjA5Ny0uMDUtLjA5NS0uMDUxLS4wOTMtLjA1MS0uMDktLjA1MS0uMDg3LS4wNTMtLjA4NS0uMDUyLS4wODMtLjA1NC0uMDgtLjA1NC0uMDc3LS4wNTR2NC4xMzl6bTAtNS42NjZ2LjAxMWwuMDAxLjAyLjAwMy4wMjIuMDA0LjAyMS4wMDUuMDIyLjAwNi4wMjEuMDA3LjAyMi4wMDkuMDIzLjAxLjAyMi4wMTEuMDIzLjAxMi4wMjMuMDEzLjAyMy4wMTUuMDIzLjAxNi4wMjQuMDE3LjAyNC4wMTguMDIzLjAxOS4wMjQuMDIxLjAyNS4wMjIuMDI0LjAyMy4wMjQuMDI0LjAyNS4wNTIuMDUuMDU2LjA1LjA2MS4wNS4wNjYuMDUxLjA3LjA1MS4wNzUuMDUyLjA3OS4wNTEuMDg0LjA1Mi4wODguMDUyLjA5Mi4wNTIuMDk3LjA1Mi4xMDIuMDUyLjEwNS4wNTEuMTEuMDUyLjExNC4wNTEuMTE5LjA1MS4xMjMuMDUxLjEyNy4wNS4xMzEuMDUuMTM1LjA1LjEzOS4wNDkuMTQ0LjA0OC4xNDcuMDQ4LjE1Mi4wNDcuMTU1LjA0Ni4xNi4wNDUuMTYzLjA0NS4xNjcuMDQzLjE3MS4wNDMuMTc2LjA0Mi4xNzguMDQuMTgzLjA0LjE4Ny4wMzguMTkuMDM3LjE5NC4wMzYuMTk3LjAzNC4yMDIuMDMzLjIwNC4wMzIuMjA5LjAzLjIxMi4wMjguMjE2LjAyNy4yMTkuMDI1LjIyMi4wMjQuMjI2LjAyMS4yMy4wMi4yMzMuMDE4LjIzNi4wMTcuMjQuMDE0LjI0My4wMTIuMjQ2LjAxLjI0OS4wMDguMjUzLjAwNi4yNTYuMDAzLjI1OS4wMDEuMjYtLjAwMS4yNTctLjAwMy4yNTQtLjAwNi4yNS0uMDA4LjI0Ny0uMDEuMjQ0LS4wMTMuMjQxLS4wMTQuMjM3LS4wMTYuMjMzLS4wMTguMjMxLS4wMi4yMjYtLjAyMi4yMjQtLjAyNC4yMi0uMDI1LjIxNi0uMDI3LjIxMi0uMDI5LjIxLS4wMy4yMDUtLjAzMi4yMDItLjAzMy4xOTgtLjAzNS4xOTQtLjAzNi4xOTEtLjAzNy4xODctLjAzOS4xODMtLjAzOS4xNzktLjA0MS4xNzUtLjA0Mi4xNzItLjA0My4xNjgtLjA0NC4xNjMtLjA0NS4xNi0uMDQ1LjE1NS0uMDQ3LjE1Mi0uMDQ3LjE0OC0uMDQ4LjE0My0uMDQ5LjEzOS0uMDQ5LjEzNi0uMDQ5LjEzMS0uMDUxLjEyNi0uMDUuMTIzLS4wNTEuMTE4LS4wNTIuMTE0LS4wNTEuMTEtLjA1Mi4xMDYtLjA1Mi4xMDEtLjA1Mi4wOTYtLjA1Mi4wOTItLjA1Mi4wODgtLjA1Mi4wODMtLjA1Mi4wNzktLjA1Mi4wNzQtLjA1Mi4wNy0uMDUxLjA2NS0uMDUxLjA2LS4wNTEuMDU2LS4wNS4wNTEtLjA0OS4wMjMtLjAyNS4wMjMtLjAyNS4wMjEtLjAyNC4wMi0uMDI0LjAxOS0uMDI0LjAxOC0uMDI0LjAxNy0uMDI0LjAxNS0uMDIzLjAxNC0uMDI0LjAxMy0uMDIzLjAxMi0uMDIzLjAxLS4wMjIuMDEtLjAyMy4wMDgtLjAyMi4wMDYtLjAyMi4wMDYtLjAyMi4wMDQtLjAyMi4wMDQtLjAyMS4wMDEtLjAyMS4wMDEtLjAyMXYtNC4xNTNsLS4wNzcuMDU0LS4wOC4wNTQtLjA4My4wNTMtLjA4NS4wNTMtLjA4Ny4wNTMtLjA5LjA1MS0uMDkzLjA1MS0uMDk1LjA1MS0uMDk3LjA1LS4xLjA0OS0uMTAyLjA0OC0uMTA1LjA0OC0uMTA2LjA0OC0uMTA5LjA0Ni0uMTExLjA0Ni0uMTE0LjA0Ni0uMTE1LjA0NC0uMTE4LjA0NC0uMTIuMDQzLS4xMjIuMDQzLS4xMjQuMDQyLS4xMjYuMDQxLS4xMjguMDQtLjEzLjAzOS0uMTMyLjAzOS0uMTM0LjAzOC0uMTM1LjAzNy0uMTM4LjAzNi0uMTM5LjAzNi0uMTQyLjAzNC0uMTQzLjAzNC0uMTQ0LjAzMy0uMTQ3LjAzMi0uMTQ4LjAzMi0uMTUuMDMtLjE1MS4wMy0uMTUzLjAyOC0uMTU0LjAyOC0uMTU2LjAyNy0uMTU4LjAyNi0uMTU5LjAyNC0uMTYxLjAyNC0uMTYyLjAyMy0uMTYzLjAyMy0uMTY1LjAyMS0uMTY2LjAyLS4xNjcuMDE5LS4xNjkuMDE4LS4xNjkuMDE3LS4xNzEuMDE2LS4xNzMuMDE1LS4xNzMuMDE0LS4xNzUuMDEzLS4xNzUuMDEyLS4xNzcuMDEtLjE3OC4wMS0uMTc5LjAwOS0uMTc5LjAwNy0uMTgxLjAwNi0uMTgyLjAwNi0uMTgyLjAwNC0uMTg0LjAwMy0uMTg0LjAwMS0uMTg1LjAwMS0uMTg1LS4wMDEtLjE4NC0uMDAxLS4xODQtLjAwMy0uMTgyLS4wMDQtLjE4Mi0uMDA2LS4xODEtLjAwNi0uMTc5LS4wMDctLjE3OS0uMDA5LS4xNzgtLjAxLS4xNzYtLjAxLS4xNzYtLjAxMi0uMTc1LS4wMTMtLjE3My0uMDE0LS4xNzItLjAxNS0uMTcxLS4wMTYtLjE3LS4wMTctLjE2OS0uMDE4LS4xNjctLjAxOS0uMTY2LS4wMi0uMTY1LS4wMjEtLjE2My0uMDIzLS4xNjItLjAyMy0uMTYxLS4wMjQtLjE1OS0uMDI0LS4xNTctLjAyNi0uMTU2LS4wMjctLjE1NS0uMDI4LS4xNTMtLjAyOC0uMTUxLS4wMy0uMTUtLjAzLS4xNDgtLjAzMi0uMTQ2LS4wMzItLjE0NS0uMDMzLS4xNDMtLjAzNC0uMTQxLS4wMzQtLjE0LS4wMzYtLjEzNy0uMDM2LS4xMzYtLjAzNy0uMTM0LS4wMzgtLjEzMi0uMDM5LS4xMy0uMDM5LS4xMjgtLjA0MS0uMTI2LS4wNDEtLjEyNC0uMDQxLS4xMjItLjA0My0uMTItLjA0My0uMTE3LS4wNDQtLjExNi0uMDQ0LS4xMTMtLjA0Ni0uMTEyLS4wNDYtLjEwOS0uMDQ2LS4xMDYtLjA0OC0uMTA1LS4wNDgtLjEwMi0uMDQ4LS4xLS4wNS0uMDk3LS4wNDktLjA5NS0uMDUxLS4wOTMtLjA1MS0uMDktLjA1Mi0uMDg3LS4wNTItLjA4NS0uMDUzLS4wODMtLjA1My0uMDgtLjA1NC0uMDc3LS4wNTR2NC4xNTN6bTguNzQtOC4xNzlsLS4yNTcuMDA0LS4yNTQuMDA1LS4yNS4wMDgtLjI0Ny4wMTEtLjI0NC4wMTItLjI0MS4wMTQtLjIzNy4wMTYtLjIzMy4wMTgtLjIzMS4wMjEtLjIyNi4wMjItLjIyNC4wMjMtLjIyLjAyNi0uMjE2LjAyNy0uMjEyLjAyOC0uMjEuMDMxLS4yMDUuMDMyLS4yMDIuMDMzLS4xOTguMDM0LS4xOTQuMDM2LS4xOTEuMDM4LS4xODcuMDM4LS4xODMuMDQtLjE3OS4wNDEtLjE3NS4wNDItLjE3Mi4wNDMtLjE2OC4wNDMtLjE2My4wNDUtLjE2LjA0Ni0uMTU1LjA0Ni0uMTUyLjA0OC0uMTQ4LjA0OC0uMTQzLjA0OC0uMTM5LjA0OS0uMTM2LjA1LS4xMzEuMDUtLjEyNi4wNTEtLjEyMy4wNTEtLjExOC4wNTEtLjExNC4wNTItLjExLjA1Mi0uMTA2LjA1Mi0uMTAxLjA1Mi0uMDk2LjA1Mi0uMDkyLjA1Mi0uMDg4LjA1Mi0uMDgzLjA1Mi0uMDc5LjA1Mi0uMDc0LjA1MS0uMDcuMDUyLS4wNjUuMDUxLS4wNi4wNS0uMDU2LjA1LS4wNTEuMDUtLjAyMy4wMjUtLjAyMy4wMjQtLjAyMS4wMjQtLjAyLjAyNS0uMDE5LjAyNC0uMDE4LjAyNC0uMDE3LjAyMy0uMDE1LjAyNC0uMDE0LjAyMy0uMDEzLjAyMy0uMDEyLjAyMy0uMDEuMDIzLS4wMS4wMjItLjAwOC4wMjItLjAwNi4wMjMtLjAwNi4wMjEtLjAwNC4wMjItLjAwNC4wMjEtLjAwMS4wMjEtLjAwMS4wMjEuMDAxLjAyMS4wMDEuMDIxLjAwNC4wMjEuMDA0LjAyMi4wMDYuMDIxLjAwNi4wMjMuMDA4LjAyMi4wMS4wMjIuMDEuMDIzLjAxMi4wMjMuMDEzLjAyMy4wMTQuMDIzLjAxNS4wMjQuMDE3LjAyMy4wMTguMDI0LjAxOS4wMjQuMDIuMDI1LjAyMS4wMjQuMDIzLjAyNC4wMjMuMDI1LjA1MS4wNS4wNTYuMDUuMDYuMDUuMDY1LjA1MS4wNy4wNTIuMDc0LjA1MS4wNzkuMDUyLjA4My4wNTIuMDg4LjA1Mi4wOTIuMDUyLjA5Ni4wNTIuMTAxLjA1Mi4xMDYuMDUyLjExLjA1Mi4xMTQuMDUyLjExOC4wNTEuMTIzLjA1MS4xMjYuMDUxLjEzMS4wNS4xMzYuMDUuMTM5LjA0OS4xNDMuMDQ4LjE0OC4wNDguMTUyLjA0OC4xNTUuMDQ2LjE2LjA0Ni4xNjMuMDQ1LjE2OC4wNDMuMTcyLjA0My4xNzUuMDQyLjE3OS4wNDEuMTgzLjA0LjE4Ny4wMzguMTkxLjAzOC4xOTQuMDM2LjE5OC4wMzQuMjAyLjAzMy4yMDUuMDMyLjIxLjAzMS4yMTIuMDI4LjIxNi4wMjcuMjIuMDI2LjIyNC4wMjMuMjI2LjAyMi4yMzEuMDIxLjIzMy4wMTguMjM3LjAxNi4yNDEuMDE0LjI0NC4wMTIuMjQ3LjAxMS4yNS4wMDguMjU0LjAwNS4yNTcuMDA0LjI2LjAwMS4yNi0uMDAxLjI1Ny0uMDA0LjI1NC0uMDA1LjI1LS4wMDguMjQ3LS4wMTEuMjQ0LS4wMTIuMjQxLS4wMTQuMjM3LS4wMTYuMjMzLS4wMTguMjMxLS4wMjEuMjI2LS4wMjIuMjI0LS4wMjMuMjItLjAyNi4yMTYtLjAyNy4yMTItLjAyOC4yMS0uMDMxLjIwNS0uMDMyLjIwMi0uMDMzLjE5OC0uMDM0LjE5NC0uMDM2LjE5MS0uMDM4LjE4Ny0uMDM4LjE4My0uMDQuMTc5LS4wNDEuMTc1LS4wNDIuMTcyLS4wNDMuMTY4LS4wNDMuMTYzLS4wNDUuMTYtLjA0Ni4xNTUtLjA0Ni4xNTItLjA0OC4xNDgtLjA0OC4xNDMtLjA0OC4xMzktLjA0OS4xMzYtLjA1LjEzMS0uMDUuMTI2LS4wNTEuMTIzLS4wNTEuMTE4LS4wNTEuMTE0LS4wNTIuMTEtLjA1Mi4xMDYtLjA1Mi4xMDEtLjA1Mi4wOTYtLjA1Mi4wOTItLjA1Mi4wODgtLjA1Mi4wODMtLjA1Mi4wNzktLjA1Mi4wNzQtLjA1MS4wNy0uMDUyLjA2NS0uMDUxLjA2LS4wNS4wNTYtLjA1LjA1MS0uMDUuMDIzLS4wMjUuMDIzLS4wMjQuMDIxLS4wMjQuMDItLjAyNS4wMTktLjAyNC4wMTgtLjAyNC4wMTctLjAyMy4wMTUtLjAyNC4wMTQtLjAyMy4wMTMtLjAyMy4wMTItLjAyMy4wMS0uMDIzLjAxLS4wMjIuMDA4LS4wMjIuMDA2LS4wMjMuMDA2LS4wMjEuMDA0LS4wMjIuMDA0LS4wMjEuMDAxLS4wMjEuMDAxLS4wMjEtLjAwMS0uMDIxLS4wMDEtLjAyMS0uMDA0LS4wMjEtLjAwNC0uMDIyLS4wMDYtLjAyMS0uMDA2LS4wMjMtLjAwOC0uMDIyLS4wMS0uMDIyLS4wMS0uMDIzLS4wMTItLjAyMy0uMDEzLS4wMjMtLjAxNC0uMDIzLS4wMTUtLjAyNC0uMDE3LS4wMjMtLjAxOC0uMDI0LS4wMTktLjAyNC0uMDItLjAyNS0uMDIxLS4wMjQtLjAyMy0uMDI0LS4wMjMtLjAyNS0uMDUxLS4wNS0uMDU2LS4wNS0uMDYtLjA1LS4wNjUtLjA1MS0uMDctLjA1Mi0uMDc0LS4wNTEtLjA3OS0uMDUyLS4wODMtLjA1Mi0uMDg4LS4wNTItLjA5Mi0uMDUyLS4wOTYtLjA1Mi0uMTAxLS4wNTItLjEwNi0uMDUyLS4xMS0uMDUyLS4xMTQtLjA1Mi0uMTE4LS4wNTEtLjEyMy0uMDUxLS4xMjYtLjA1MS0uMTMxLS4wNS0uMTM2LS4wNS0uMTM5LS4wNDktLjE0My0uMDQ4LS4xNDgtLjA0OC0uMTUyLS4wNDgtLjE1NS0uMDQ2LS4xNi0uMDQ2LS4xNjMtLjA0NS0uMTY4LS4wNDMtLjE3Mi0uMDQzLS4xNzUtLjA0Mi0uMTc5LS4wNDEtLjE4My0uMDQtLjE4Ny0uMDM4LS4xOTEtLjAzOC0uMTk0LS4wMzYtLjE5OC0uMDM0LS4yMDItLjAzMy0uMjA1LS4wMzItLjIxLS4wMzEtLjIxMi0uMDI4LS4yMTYtLjAyNy0uMjItLjAyNi0uMjI0LS4wMjMtLjIyNi0uMDIyLS4yMzEtLjAyMS0uMjMzLS4wMTgtLjIzNy0uMDE2LS4yNDEtLjAxNC0uMjQ0LS4wMTItLjI0Ny0uMDExLS4yNS0uMDA4LS4yNTQtLjAwNS0uMjU3LS4wMDQtLjI2LS4wMDEtLjI2LjAwMXoiLz48L3N5bWJvbD48L2RlZnM+PGRlZnM+PHN5bWJvbCBpZD0iY2xvY2siIHdpZHRoPSIyNCIgaGVpZ2h0PSIyNCI+PHBhdGggdHJhbnNmb3JtPSJzY2FsZSguNSkiIGQ9Ik0xMiAyYzUuNTE0IDAgMTAgNC40ODYgMTAgMTBzLTQuNDg2IDEwLTEwIDEwLTEwLTQuNDg2LTEwLTEwIDQuNDg2LTEwIDEwLTEwem0wLTJjLTYuNjI3IDAtMTIgNS4zNzMtMTIgMTJzNS4zNzMgMTIgMTIgMTIgMTItNS4zNzMgMTItMTItNS4zNzMtMTItMTItMTJ6bTUuODQ4IDEyLjQ1OWMuMjAyLjAzOC4yMDIuMzMzLjAwMS4zNzItMS45MDcuMzYxLTYuMDQ1IDEuMTExLTYuNTQ3IDEuMTExLS43MTkgMC0xLjMwMS0uNTgyLTEuMzAxLTEuMzAxIDAtLjUxMi43Ny01LjQ0NyAxLjEyNS03LjQ0NS4wMzQtLjE5Mi4zMTItLjE4MS4zNDMuMDE0bC45ODUgNi4yMzggNS4zOTQgMS4wMTF6Ii8+PC9zeW1ib2w+PC9kZWZzPjxkZWZzPjxtYXJrZXIgaWQ9ImFycm93aGVhZCIgcmVmWD0iNy45IiByZWZZPSI1IiBtYXJrZXJVbml0cz0idXNlclNwYWNlT25Vc2UiIG1hcmtlcldpZHRoPSIxMiIgbWFya2VySGVpZ2h0PSIxMiIgb3JpZW50PSJhdXRvIj48cGF0aCBkPSJNIDAgMCBMIDEwIDUgTCAwIDEwIHoiLz48L21hcmtlcj48L2RlZnM+PGRlZnM+PG1hcmtlciBpZD0iY3Jvc3NoZWFkIiBtYXJrZXJXaWR0aD0iMTUiIG1hcmtlckhlaWdodD0iOCIgb3JpZW50PSJhdXRvIiByZWZYPSI0IiByZWZZPSI0LjUiPjxwYXRoIGZpbGw9Im5vbmUiIHN0cm9rZT0iIzAwMDAwMCIgc3Ryb2tlLXdpZHRoPSIxcHQiIGQ9Ik0gMSwyIEwgNiw3IE0gNiwyIEwgMSw3IiBzdHlsZT0ic3Ryb2tlLWRhc2hhcnJheTogMCwgMDsiLz48L21hcmtlcj48L2RlZnM+PGRlZnM+PG1hcmtlciBpZD0iZmlsbGVkLWhlYWQiIHJlZlg9IjE1LjUiIHJlZlk9IjciIG1hcmtlcldpZHRoPSIyMCIgbWFya2VySGVpZ2h0PSIyOCIgb3JpZW50PSJhdXRvIj48cGF0aCBkPSJNIDE4LDcgTDksMTMgTDE0LDcgTDksMSBaIi8+PC9tYXJrZXI+PC9kZWZzPjxkZWZzPjxtYXJrZXIgaWQ9InNlcXVlbmNlbnVtYmVyIiByZWZYPSIxNSIgcmVmWT0iMTUiIG1hcmtlcldpZHRoPSI2MCIgbWFya2VySGVpZ2h0PSI0MCIgb3JpZW50PSJhdXRvIj48Y2lyY2xlIGN4PSIxNSIgY3k9IjE1IiByPSI2Ii8+PC9tYXJrZXI+PC9kZWZzPjxnIGRhdGEtZXQ9Im5vdGUiIGRhdGEtaWQ9ImljMmY4Y2FhOWJmIj48cmVjdCB4PSI1MCIgeT0iNzUiIGZpbGw9IiNFREYyQUUiIHN0cm9rZT0iIzY2NiIgd2lkdGg9IjI1NiIgaGVpZ2h0PSIzNyIgcng9IjAiIHJ5PSIwIiBjbGFzcz0ibm90ZSIvPjx0ZXh0IHg9IjE3OCIgeT0iODAiIHRleHQtYW5jaG9yPSJtaWRkbGUiIGFsaWdubWVudC1iYXNlbGluZT0ibWlkZGxlIiBzdHlsZT0iZm9udC1zaXplOiAxNnB4OyBmb250LXdlaWdodDogNDAwOyIgY2xhc3M9Im5vdGVUZXh0IiBkeT0iMWVtIj48dHNwYW4geD0iMTc4Ij4xLiBDb25maWcgZmlsZSBzZXR1cDwvdHNwYW4+PC90ZXh0PjwvZz48ZyBkYXRhLWV0PSJub3RlIiBkYXRhLWlkPSJpOThlN2M1ZGI1NCI+PHJlY3QgeD0iMjU2IiB5PSIxMjIiIGZpbGw9IiNFREYyQUUiIHN0cm9rZT0iIzY2NiIgd2lkdGg9IjI5NSIgaGVpZ2h0PSIzNyIgcng9IjAiIHJ5PSIwIiBjbGFzcz0ibm90ZSIvPjx0ZXh0IHg9IjQwNCIgeT0iMTI3IiB0ZXh0LWFuY2hvcj0ibWlkZGxlIiBhbGlnbm1lbnQtYmFzZWxpbmU9Im1pZGRsZSIgc3R5bGU9ImZvbnQtc2l6ZTogMTZweDsgZm9udC13ZWlnaHQ6IDQwMDsiIGNsYXNzPSJub3RlVGV4dCIgZHk9IjFlbSI+PHRzcGFuIHg9IjQwNCI+Mi4gQ29ubmVjdCB0byBEYXRhYmFzZTwvdHNwYW4+PC90ZXh0PjwvZz48Zy8+PGcgZGF0YS1ldD0iY29udHJvbC1zdHJ1Y3R1cmUiIGRhdGEtaWQ9IjFmMmQ3YjE5MzYiPjxsaW5lIHgxPSIyNzAiIHkxPSIyNTciIHgyPSIzODIyIiB5Mj0iMjU3IiBjbGFzcz0ibG9vcExpbmUiLz48bGluZSB4MT0iMzgyMiIgeTE9IjI1NyIgeDI9IjM4MjIiIHkyPSI0NzkiIGNsYXNzPSJsb29wTGluZSIvPjxsaW5lIHgxPSIyNzAiIHkxPSI0NzkiIHgyPSIzODIyIiB5Mj0iNDc5IiBjbGFzcz0ibG9vcExpbmUiLz48bGluZSB4MT0iMjcwIiB5MT0iMjU3IiB4Mj0iMjcwIiB5Mj0iNDc5IiBjbGFzcz0ibG9vcExpbmUiLz48bGluZSB4MT0iMjcwIiB5MT0iMzUxIiB4Mj0iMzgyMiIgeTI9IjM1MSIgY2xhc3M9Imxvb3BMaW5lIiBzdHlsZT0ic3Ryb2tlLWRhc2hhcnJheTogMywgMzsiLz48cG9seWdvbiBwb2ludHM9IjI3MCwyNTcgMzIwLDI1NyAzMjAsMjcwIDMxMS42LDI3NyAyNzAsMjc3IiBjbGFzcz0ibGFiZWxCb3giLz48dGV4dCB4PSIyOTUiIHk9IjI3MCIgdGV4dC1hbmNob3I9Im1pZGRsZSIgYWxpZ25tZW50LWJhc2VsaW5lPSJtaWRkbGUiIHN0eWxlPSJmb250LXNpemU6IDE2cHg7IGZvbnQtd2VpZ2h0OiA0MDA7IiBjbGFzcz0ibGFiZWxUZXh0Ij5hbHQ8L3RleHQ+PHRleHQgeD0iMjA3MSIgeT0iMjc1IiB0ZXh0LWFuY2hvcj0ibWlkZGxlIiBzdHlsZT0iZm9udC1zaXplOiAxNnB4OyBmb250LXdlaWdodDogNDAwOyIgY2xhc3M9Imxvb3BUZXh0Ij48dHNwYW4geD0iMjA3MSI+W3N1Y2Nlc3NmdWwgY29ubmVjdGlvbl08L3RzcGFuPjwvdGV4dD48dGV4dCB4PSIyMDQ2IiB5PSIzNjkiIHRleHQtYW5jaG9yPSJtaWRkbGUiIHN0eWxlPSJmb250LXNpemU6IDE2cHg7IGZvbnQtd2VpZ2h0OiA0MDA7IiBjbGFzcz0ibG9vcFRleHQiPltjb25uZWN0aW9uIGVycm9yXTwvdGV4dD48L2c+PGcgZGF0YS1ldD0ibm90ZSIgZGF0YS1pZD0iaTMzMTRhNzdlZGQiPjxyZWN0IHg9IjcwMSIgeT0iNDg5IiBmaWxsPSIjRURGMkFFIiBzdHJva2U9IiM2NjYiIHdpZHRoPSIyNTAiIGhlaWdodD0iMzciIHJ4PSIwIiByeT0iMCIgY2xhc3M9Im5vdGUiLz48dGV4dCB4PSI4MjYiIHk9IjQ5NCIgdGV4dC1hbmNob3I9Im1pZGRsZSIgYWxpZ25tZW50LWJhc2VsaW5lPSJtaWRkbGUiIHN0eWxlPSJmb250LXNpemU6IDE2cHg7IGZvbnQtd2VpZ2h0OiA0MDA7IiBjbGFzcz0ibm90ZVRleHQiIGR5PSIxZW0iPjx0c3BhbiB4PSI4MjYiPjMuIEFwcCBzZXR1cDwvdHNwYW4+PC90ZXh0PjwvZz48ZyBkYXRhLWV0PSJub3RlIiBkYXRhLWlkPSJpZDUzZDE4ZGVmYiI+PHJlY3QgeD0iMTQ1MSIgeT0iODg4IiBmaWxsPSIjRURGMkFFIiBzdHJva2U9IiM2NjYiIHdpZHRoPSIxNTAiIGhlaWdodD0iMzciIHJ4PSIwIiByeT0iMCIgY2xhc3M9Im5vdGUiLz48dGV4dCB4PSIxNTI2IiB5PSI4OTMiIHRleHQtYW5jaG9yPSJtaWRkbGUiIGFsaWdubWVudC1iYXNlbGluZT0ibWlkZGxlIiBzdHlsZT0iZm9udC1zaXplOiAxNnB4OyBmb250LXdlaWdodDogNDAwOyIgY2xhc3M9Im5vdGVUZXh0IiBkeT0iMWVtIj48dHNwYW4geD0iMTUyNiI+NC4gUm91dGVyIHNldHVwPC90c3Bhbj48L3RleHQ+PC9nPjxnIGRhdGEtZXQ9Im5vdGUiIGRhdGEtaWQ9Imk0NmI2ZTEwNGU3Ij48cmVjdCB4PSIyNjg0IiB5PSIxNjgzIiBmaWxsPSIjRURGMkFFIiBzdHJva2U9IiM2NjYiIHdpZHRoPSIxNTAiIGhlaWdodD0iMzciIHJ4PSIwIiByeT0iMCIgY2xhc3M9Im5vdGUiLz48dGV4dCB4PSIyNzU5IiB5PSIxNjg4IiB0ZXh0LWFuY2hvcj0ibWlkZGxlIiBhbGlnbm1lbnQtYmFzZWxpbmU9Im1pZGRsZSIgc3R5bGU9ImZvbnQtc2l6ZTogMTZweDsgZm9udC13ZWlnaHQ6IDQwMDsiIGNsYXNzPSJub3RlVGV4dCIgZHk9IjFlbSI+PHRzcGFuIHg9IjI3NTkiPk1vZGVsPC90c3Bhbj48L3RleHQ+PC9nPjxnIGRhdGEtZXQ9Im5vdGUiIGRhdGEtaWQ9ImkyMzhhNjY5OWRlIj48cmVjdCB4PSIyODg0IiB5PSIxNzMwIiBmaWxsPSIjRURGMkFFIiBzdHJva2U9IiM2NjYiIHdpZHRoPSIxNTAiIGhlaWdodD0iMzciIHJ4PSIwIiByeT0iMCIgY2xhc3M9Im5vdGUiLz48dGV4dCB4PSIyOTU5IiB5PSIxNzM1IiB0ZXh0LWFuY2hvcj0ibWlkZGxlIiBhbGlnbm1lbnQtYmFzZWxpbmU9Im1pZGRsZSIgc3R5bGU9ImZvbnQtc2l6ZTogMTZweDsgZm9udC13ZWlnaHQ6IDQwMDsiIGNsYXNzPSJub3RlVGV4dCIgZHk9IjFlbSI+PHRzcGFuIHg9IjI5NTkiPkVycm9yIEhhbmRsaW5nPC90c3Bhbj48L3RleHQ+PC9nPjxnIGRhdGEtZXQ9Im5vdGUiIGRhdGEtaWQ9ImlmZDRlNTUwMDE5Ij48cmVjdCB4PSIzMDg0IiB5PSIxNzc3IiBmaWxsPSIjRURGMkFFIiBzdHJva2U9IiM2NjYiIHdpZHRoPSIxNTAiIGhlaWdodD0iMzciIHJ4PSIwIiByeT0iMCIgY2xhc3M9Im5vdGUiLz48dGV4dCB4PSIzMTU5IiB5PSIxNzgyIiB0ZXh0LWFuY2hvcj0ibWlkZGxlIiBhbGlnbm1lbnQtYmFzZWxpbmU9Im1pZGRsZSIgc3R5bGU9ImZvbnQtc2l6ZTogMTZweDsgZm9udC13ZWlnaHQ6IDQwMDsiIGNsYXNzPSJub3RlVGV4dCIgZHk9IjFlbSI+PHRzcGFuIHg9IjMxNTkiPlV0aWxpdHk8L3RzcGFuPjwvdGV4dD48L2c+PGcgZGF0YS1ldD0ibm90ZSIgZGF0YS1pZD0iaWNmMjcwM2I5MWMiPjxyZWN0IHg9IjM3MDYiIHk9IjE4MjQiIGZpbGw9IiNFREYyQUUiIHN0cm9rZT0iIzY2NiIgd2lkdGg9IjIxMCIgaGVpZ2h0PSIzNyIgcng9IjAiIHJ5PSIwIiBjbGFzcz0ibm90ZSIvPjx0ZXh0IHg9IjM4MTEiIHk9IjE4MjkiIHRleHQtYW5jaG9yPSJtaWRkbGUiIGFsaWdubWVudC1iYXNlbGluZT0ibWlkZGxlIiBzdHlsZT0iZm9udC1zaXplOiAxNnB4OyBmb250LXdlaWdodDogNDAwOyIgY2xhc3M9Im5vdGVUZXh0IiBkeT0iMWVtIj48dHNwYW4geD0iMzgxMSI+RXJyb3IgSGFuZGxpbmcgTWlkZGxld2FyZTwvdHNwYW4+PC90ZXh0PjwvZz48Zy8+PGcvPjxnLz48Zy8+PGcvPjxnIGRhdGEtZXQ9ImNvbnRyb2wtc3RydWN0dXJlIiBkYXRhLWlkPSJmYjE0NGMzMjgxIj48bGluZSB4MT0iMTUxNSIgeTE9IjE4NzEiIHgyPSIyNzcwIiB5Mj0iMTg3MSIgY2xhc3M9Imxvb3BMaW5lIi8+PGxpbmUgeDE9IjI3NzAiIHkxPSIxODcxIiB4Mj0iMjc3MCIgeTI9IjI3NTYiIGNsYXNzPSJsb29wTGluZSIvPjxsaW5lIHgxPSIxNTE1IiB5MT0iMjc1NiIgeDI9IjI3NzAiIHkyPSIyNzU2IiBjbGFzcz0ibG9vcExpbmUiLz48bGluZSB4MT0iMTUxNSIgeTE9IjE4NzEiIHgyPSIxNTE1IiB5Mj0iMjc1NiIgY2xhc3M9Imxvb3BMaW5lIi8+PGxpbmUgeDE9IjE1MTUiIHkxPSIyMDUzIiB4Mj0iMjc3MCIgeTI9IjIwNTMiIGNsYXNzPSJsb29wTGluZSIgc3R5bGU9InN0cm9rZS1kYXNoYXJyYXk6IDMsIDM7Ii8+PGxpbmUgeDE9IjE1MTUiIHkxPSIyMjMwIiB4Mj0iMjc3MCIgeTI9IjIyMzAiIGNsYXNzPSJsb29wTGluZSIgc3R5bGU9InN0cm9rZS1kYXNoYXJyYXk6IDMsIDM7Ii8+PGxpbmUgeDE9IjE1MTUiIHkxPSIyNDA3IiB4Mj0iMjc3MCIgeTI9IjI0MDciIGNsYXNzPSJsb29wTGluZSIgc3R5bGU9InN0cm9rZS1kYXNoYXJyYXk6IDMsIDM7Ii8+PGxpbmUgeDE9IjE1MTUiIHkxPSIyNTg0IiB4Mj0iMjc3MCIgeTI9IjI1ODQiIGNsYXNzPSJsb29wTGluZSIgc3R5bGU9InN0cm9rZS1kYXNoYXJyYXk6IDMsIDM7Ii8+PHBvbHlnb24gcG9pbnRzPSIxNTE1LDE4NzEgMTU2NSwxODcxIDE1NjUsMTg4NCAxNTU2LjYsMTg5MSAxNTE1LDE4OTEiIGNsYXNzPSJsYWJlbEJveCIvPjx0ZXh0IHg9IjE1NDAiIHk9IjE4ODQiIHRleHQtYW5jaG9yPSJtaWRkbGUiIGFsaWdubWVudC1iYXNlbGluZT0ibWlkZGxlIiBzdHlsZT0iZm9udC1zaXplOiAxNnB4OyBmb250LXdlaWdodDogNDAwOyIgY2xhc3M9ImxhYmVsVGV4dCI+YWx0PC90ZXh0Pjx0ZXh0IHg9IjIxNjcuNSIgeT0iMTg4OSIgdGV4dC1hbmNob3I9Im1pZGRsZSIgc3R5bGU9ImZvbnQtc2l6ZTogMTZweDsgZm9udC13ZWlnaHQ6IDQwMDsiIGNsYXNzPSJsb29wVGV4dCI+PHRzcGFuIHg9IjIxNjcuNSI+W25ldyBwcm9kdWN0IHJlcXVlc3RdPC90c3Bhbj48L3RleHQ+PHRleHQgeD0iMjE0Mi41IiB5PSIyMDcxIiB0ZXh0LWFuY2hvcj0ibWlkZGxlIiBzdHlsZT0iZm9udC1zaXplOiAxNnB4OyBmb250LXdlaWdodDogNDAwOyIgY2xhc3M9Imxvb3BUZXh0Ij5bdXBkYXRlIHByb2R1Y3QgcmVxdWVzdF08L3RleHQ+PHRleHQgeD0iMjE0Mi41IiB5PSIyMjQ4IiB0ZXh0LWFuY2hvcj0ibWlkZGxlIiBzdHlsZT0iZm9udC1zaXplOiAxNnB4OyBmb250LXdlaWdodDogNDAwOyIgY2xhc3M9Imxvb3BUZXh0Ij5bZ2V0IHByb2R1Y3QgcmVxdWVzdF08L3RleHQ+PHRleHQgeD0iMjE0Mi41IiB5PSIyNDI1IiB0ZXh0LWFuY2hvcj0ibWlkZGxlIiBzdHlsZT0iZm9udC1zaXplOiAxNnB4OyBmb250LXdlaWdodDogNDAwOyIgY2xhc3M9Imxvb3BUZXh0Ij5bZ2V0IGFsbCBwcm9kdWN0cyByZXF1ZXN0XTwvdGV4dD48dGV4dCB4PSIyMTQyLjUiIHk9IjI2MDIiIHRleHQtYW5jaG9yPSJtaWRkbGUiIHN0eWxlPSJmb250LXNpemU6IDE2cHg7IGZvbnQtd2VpZ2h0OiA0MDA7IiBjbGFzcz0ibG9vcFRleHQiPltkZWxldGUgcHJvZHVjdCByZXF1ZXN0XTwvdGV4dD48L2c+PHRleHQgeD0iMTc5IiB5PSIxNzQiIHRleHQtYW5jaG9yPSJtaWRkbGUiIGFsaWdubWVudC1iYXNlbGluZT0ibWlkZGxlIiBzdHlsZT0iZm9udC1zaXplOiAxNnB4OyBmb250LXdlaWdodDogNDAwOyIgY2xhc3M9Im1lc3NhZ2VUZXh0IiBkeT0iMWVtIj5jb25maWcgZmlsZTwvdGV4dD48bGluZSB4MT0iODAiIHkxPSIyMDMiIHgyPSIyNzciIHkyPSIyMDMiIGNsYXNzPSJtZXNzYWdlTGluZTAiIGRhdGEtZXQ9Im1lc3NhZ2UiIGRhdGEtaWQ9ImlmMzY2NjYxM2E1IiBkYXRhLWZyb209ImRvdGVudiIgZGF0YS10bz0iY29ubmVjdFRvRGF0YWJhc2UiIHN0cm9rZS13aWR0aD0iMiIgc3Ryb2tlPSJub25lIiBtYXJrZXItZW5kPSJ1cmwoI2Fycm93aGVhZCkiIHN0eWxlPSJmaWxsOiBub25lOyIvPjx0ZXh0IHg9IjQwMiIgeT0iMjE4IiB0ZXh0LWFuY2hvcj0ibWlkZGxlIiBhbGlnbm1lbnQtYmFzZWxpbmU9Im1pZGRsZSIgc3R5bGU9ImZvbnQtc2l6ZTogMTZweDsgZm9udC13ZWlnaHQ6IDQwMDsiIGNsYXNzPSJtZXNzYWdlVGV4dCIgZHk9IjFlbSI+Y29ubmVjdDwvdGV4dD48bGluZSB4MT0iMjgyIiB5MT0iMjQ3IiB4Mj0iNTIyIiB5Mj0iMjQ3IiBjbGFzcz0ibWVzc2FnZUxpbmUwIiBkYXRhLWV0PSJtZXNzYWdlIiBkYXRhLWlkPSJpZjFiZjE5MWIyMyIgZGF0YS1mcm9tPSJjb25uZWN0VG9EYXRhYmFzZSIgZGF0YS10bz0ibW9uZ29vc2UiIHN0cm9rZS13aWR0aD0iMiIgc3Ryb2tlPSJub25lIiBtYXJrZXItZW5kPSJ1cmwoI2Fycm93aGVhZCkiIHN0eWxlPSJmaWxsOiBub25lOyIvPjx0ZXh0IHg9IjQwNSIgeT0iMzA3IiB0ZXh0LWFuY2hvcj0ibWlkZGxlIiBhbGlnbm1lbnQtYmFzZWxpbmU9Im1pZGRsZSIgc3R5bGU9ImZvbnQtc2l6ZTogMTZweDsgZm9udC13ZWlnaHQ6IDQwMDsiIGNsYXNzPSJtZXNzYWdlVGV4dCIgZHk9IjFlbSI+Q29ubmVjdGVkIHRvIE1vbmdvREIuPC90ZXh0PjxsaW5lIHgxPSI1MjUiIHkxPSIzMzYiIHgyPSIyODUiIHkyPSIzMzYiIGNsYXNzPSJtZXNzYWdlTGluZTEiIGRhdGEtZXQ9Im1lc3NhZ2UiIGRhdGEtaWQ9ImkwNzBkOGFhYzRkIiBkYXRhLWZyb209Im1vbmdvb3NlIiBkYXRhLXRvPSJjb25uZWN0VG9EYXRhYmFzZSIgc3Ryb2tlLXdpZHRoPSIyIiBzdHJva2U9Im5vbmUiIHN0eWxlPSJzdHJva2UtZGFzaGFycmF5OiAzLCAzOyBmaWxsOiBub25lOyIgbWFya2VyLWVuZD0idXJsKCNhcnJvd2hlYWQpIi8+PHRleHQgeD0iNDA1IiB5PSIzOTYiIHRleHQtYW5jaG9yPSJtaWRkbGUiIGFsaWdubWVudC1iYXNlbGluZT0ibWlkZGxlIiBzdHlsZT0iZm9udC1zaXplOiAxNnB4OyBmb250LXdlaWdodDogNDAwOyIgY2xhc3M9Im1lc3NhZ2VUZXh0IiBkeT0iMWVtIj5lcnJvcjwvdGV4dD48bGluZSB4MT0iNTI1IiB5MT0iNDI1IiB4Mj0iMjg1IiB5Mj0iNDI1IiBjbGFzcz0ibWVzc2FnZUxpbmUxIiBkYXRhLWV0PSJtZXNzYWdlIiBkYXRhLWlkPSJpMDcxNjJlYmNlNCIgZGF0YS1mcm9tPSJtb25nb29zZSIgZGF0YS10bz0iY29ubmVjdFRvRGF0YWJhc2UiIHN0cm9rZS13aWR0aD0iMiIgc3Ryb2tlPSJub25lIiBzdHlsZT0ic3Ryb2tlLWRhc2hhcnJheTogMywgMzsgZmlsbDogbm9uZTsiIG1hcmtlci1lbmQ9InVybCgjYXJyb3doZWFkKSIvPjx0ZXh0IHg9IjIwNDUiIHk9IjQ0MCIgdGV4dC1hbmNob3I9Im1pZGRsZSIgYWxpZ25tZW50LWJhc2VsaW5lPSJtaWRkbGUiIHN0eWxlPSJmb250LXNpemU6IDE2cHg7IGZvbnQtd2VpZ2h0OiA0MDA7IiBjbGFzcz0ibWVzc2FnZVRleHQiIGR5PSIxZW0iPmVycm9yPC90ZXh0PjxsaW5lIHgxPSIyODIiIHkxPSI0NjkiIHgyPSIzODA3IiB5Mj0iNDY5IiBjbGFzcz0ibWVzc2FnZUxpbmUwIiBkYXRhLWV0PSJtZXNzYWdlIiBkYXRhLWlkPSJpYTA2ODEyYTMzYiIgZGF0YS1mcm9tPSJjb25uZWN0VG9EYXRhYmFzZSIgZGF0YS10bz0iZXJyb3JIYW5kbGVyTWlkZGxld2FyZSIgc3Ryb2tlLXdpZHRoPSIyIiBzdHJva2U9Im5vbmUiIG1hcmtlci1lbmQ9InVybCgjYXJyb3doZWFkKSIgc3R5bGU9ImZpbGw6IG5vbmU7Ii8+PHRleHQgeD0iODI1IiB5PSI1NDEiIHRleHQtYW5jaG9yPSJtaWRkbGUiIGFsaWdubWVudC1iYXNlbGluZT0ibWlkZGxlIiBzdHlsZT0iZm9udC1zaXplOiAxNnB4OyBmb250LXdlaWdodDogNDAwOyIgY2xhc3M9Im1lc3NhZ2VUZXh0IiBkeT0iMWVtIj5jcmVhdGUgYXBwPC90ZXh0PjxsaW5lIHgxPSI3MjciIHkxPSI1NzAiIHgyPSI5MjIiIHkyPSI1NzAiIGNsYXNzPSJtZXNzYWdlTGluZTAiIGRhdGEtZXQ9Im1lc3NhZ2UiIGRhdGEtaWQ9Imk5MTczYWU0ZGZmIiBkYXRhLWZyb209ImFwcCIgZGF0YS10bz0iZXhwcmVzcyIgc3Ryb2tlLXdpZHRoPSIyIiBzdHJva2U9Im5vbmUiIG1hcmtlci1lbmQ9InVybCgjYXJyb3doZWFkKSIgc3R5bGU9ImZpbGw6IG5vbmU7Ii8+PHRleHQgeD0iODI4IiB5PSI1ODUiIHRleHQtYW5jaG9yPSJtaWRkbGUiIGFsaWdubWVudC1iYXNlbGluZT0ibWlkZGxlIiBzdHlsZT0iZm9udC1zaXplOiAxNnB4OyBmb250LXdlaWdodDogNDAwOyIgY2xhc3M9Im1lc3NhZ2VUZXh0IiBkeT0iMWVtIj5hcHA8L3RleHQ+PGxpbmUgeDE9IjkyNSIgeTE9IjYxNCIgeDI9IjczMCIgeTI9IjYxNCIgY2xhc3M9Im1lc3NhZ2VMaW5lMSIgZGF0YS1ldD0ibWVzc2FnZSIgZGF0YS1pZD0iaWZjODgwOTdlYzUiIGRhdGEtZnJvbT0iZXhwcmVzcyIgZGF0YS10bz0iYXBwIiBzdHJva2Utd2lkdGg9IjIiIHN0cm9rZT0ibm9uZSIgc3R5bGU9InN0cm9rZS1kYXNoYXJyYXk6IDMsIDM7IGZpbGw6IG5vbmU7IiBtYXJrZXItZW5kPSJ1cmwoI2Fycm93aGVhZCkiLz48dGV4dCB4PSI4MjUiIHk9IjYyOSIgdGV4dC1hbmNob3I9Im1pZGRsZSIgYWxpZ25tZW50LWJhc2VsaW5lPSJtaWRkbGUiIHN0eWxlPSJmb250LXNpemU6IDE2cHg7IGZvbnQtd2VpZ2h0OiA0MDA7IiBjbGFzcz0ibWVzc2FnZVRleHQiIGR5PSIxZW0iPnVzZSBqc29uPC90ZXh0PjxsaW5lIHgxPSI3MjciIHkxPSI2NTgiIHgyPSI5MjIiIHkyPSI2NTgiIGNsYXNzPSJtZXNzYWdlTGluZTAiIGRhdGEtZXQ9Im1lc3NhZ2UiIGRhdGEtaWQ9ImlkYjRjZWI0YjQ2IiBkYXRhLWZyb209ImFwcCIgZGF0YS10bz0iZXhwcmVzcyIgc3Ryb2tlLXdpZHRoPSIyIiBzdHJva2U9Im5vbmUiIG1hcmtlci1lbmQ9InVybCgjYXJyb3doZWFkKSIgc3R5bGU9ImZpbGw6IG5vbmU7Ii8+PHRleHQgeD0iODI1IiB5PSI2NzMiIHRleHQtYW5jaG9yPSJtaWRkbGUiIGFsaWdubWVudC1iYXNlbGluZT0ibWlkZGxlIiBzdHlsZT0iZm9udC1zaXplOiAxNnB4OyBmb250LXdlaWdodDogNDAwOyIgY2xhc3M9Im1lc3NhZ2VUZXh0IiBkeT0iMWVtIj5qc29uPC90ZXh0PjxsaW5lIHgxPSI3MjciIHkxPSI3MDIiIHgyPSI5MjIiIHkyPSI3MDIiIGNsYXNzPSJtZXNzYWdlTGluZTEiIGRhdGEtZXQ9Im1lc3NhZ2UiIGRhdGEtaWQ9Imk1NjU4MTJhNTBkIiBkYXRhLWZyb209ImFwcCIgZGF0YS10bz0iZXhwcmVzcyIgc3Ryb2tlLXdpZHRoPSIyIiBzdHJva2U9Im5vbmUiIHN0eWxlPSJzdHJva2UtZGFzaGFycmF5OiAzLCAzOyBmaWxsOiBub25lOyIgbWFya2VyLWVuZD0idXJsKCNhcnJvd2hlYWQpIi8+PHRleHQgeD0iOTI1IiB5PSI3MTciIHRleHQtYW5jaG9yPSJtaWRkbGUiIGFsaWdubWVudC1iYXNlbGluZT0ibWlkZGxlIiBzdHlsZT0iZm9udC1zaXplOiAxNnB4OyBmb250LXdlaWdodDogNDAwOyIgY2xhc3M9Im1lc3NhZ2VUZXh0IiBkeT0iMWVtIj51c2UgcHJvZHVjdCByb3V0ZXM8L3RleHQ+PGxpbmUgeDE9IjcyNyIgeTE9Ijc0NiIgeDI9IjExMjIiIHkyPSI3NDYiIGNsYXNzPSJtZXNzYWdlTGluZTAiIGRhdGEtZXQ9Im1lc3NhZ2UiIGRhdGEtaWQ9ImkyYmUzNjk3YjlhIiBkYXRhLWZyb209ImFwcCIgZGF0YS10bz0icHJvZHVjdHNSb3V0ZXIiIHN0cm9rZS13aWR0aD0iMiIgc3Ryb2tlPSJub25lIiBtYXJrZXItZW5kPSJ1cmwoI2Fycm93aGVhZCkiIHN0eWxlPSJmaWxsOiBub25lOyIvPjx0ZXh0IHg9IjkyOCIgeT0iNzYxIiB0ZXh0LWFuY2hvcj0ibWlkZGxlIiBhbGlnbm1lbnQtYmFzZWxpbmU9Im1pZGRsZSIgc3R5bGU9ImZvbnQtc2l6ZTogMTZweDsgZm9udC13ZWlnaHQ6IDQwMDsiIGNsYXNzPSJtZXNzYWdlVGV4dCIgZHk9IjFlbSI+cm91dGVzPC90ZXh0PjxsaW5lIHgxPSIxMTI1IiB5MT0iNzkwIiB4Mj0iNzMwIiB5Mj0iNzkwIiBjbGFzcz0ibWVzc2FnZUxpbmUxIiBkYXRhLWV0PSJtZXNzYWdlIiBkYXRhLWlkPSJpZGJiYWUxNDFlZiIgZGF0YS1mcm9tPSJwcm9kdWN0c1JvdXRlciIgZGF0YS10bz0iYXBwIiBzdHJva2Utd2lkdGg9IjIiIHN0cm9rZT0ibm9uZSIgc3R5bGU9InN0cm9rZS1kYXNoYXJyYXk6IDMsIDM7IGZpbGw6IG5vbmU7IiBtYXJrZXItZW5kPSJ1cmwoI2Fycm93aGVhZCkiLz48dGV4dCB4PSIxMDI1IiB5PSI4MDUiIHRleHQtYW5jaG9yPSJtaWRkbGUiIGFsaWdubWVudC1iYXNlbGluZT0ibWlkZGxlIiBzdHlsZT0iZm9udC1zaXplOiAxNnB4OyBmb250LXdlaWdodDogNDAwOyIgY2xhc3M9Im1lc3NhZ2VUZXh0IiBkeT0iMWVtIj51c2UgZXJyb3IgbWlkZGxld2FyZTwvdGV4dD48bGluZSB4MT0iNzI3IiB5MT0iODM0IiB4Mj0iMTMyMiIgeTI9IjgzNCIgY2xhc3M9Im1lc3NhZ2VMaW5lMCIgZGF0YS1ldD0ibWVzc2FnZSIgZGF0YS1pZD0iaWI4NzAxYjUyM2UiIGRhdGEtZnJvbT0iYXBwIiBkYXRhLXRvPSJlcnJvck1pZGRsZXdhcmUiIHN0cm9rZS13aWR0aD0iMiIgc3Ryb2tlPSJub25lIiBtYXJrZXItZW5kPSJ1cmwoI2Fycm93aGVhZCkiIHN0eWxlPSJmaWxsOiBub25lOyIvPjx0ZXh0IHg9IjEwMjgiIHk9Ijg0OSIgdGV4dC1hbmNob3I9Im1pZGRsZSIgYWxpZ25tZW50LWJhc2VsaW5lPSJtaWRkbGUiIHN0eWxlPSJmb250LXNpemU6IDE2cHg7IGZvbnQtd2VpZ2h0OiA0MDA7IiBjbGFzcz0ibWVzc2FnZVRleHQiIGR5PSIxZW0iPm1pZGRsZXdhcmU8L3RleHQ+PGxpbmUgeDE9IjEzMjUiIHkxPSI4NzgiIHgyPSI3MzAiIHkyPSI4NzgiIGNsYXNzPSJtZXNzYWdlTGluZTEiIGRhdGEtZXQ9Im1lc3NhZ2UiIGRhdGEtaWQ9ImlhNjZkMmIwYTIwIiBkYXRhLWZyb209ImVycm9yTWlkZGxld2FyZSIgZGF0YS10bz0iYXBwIiBzdHJva2Utd2lkdGg9IjIiIHN0cm9rZT0ibm9uZSIgc3R5bGU9InN0cm9rZS1kYXNoYXJyYXk6IDMsIDM7IGZpbGw6IG5vbmU7IiBtYXJrZXItZW5kPSJ1cmwoI2Fycm93aGVhZCkiLz48dGV4dCB4PSIxMjI4IiB5PSI5NDAiIHRleHQtYW5jaG9yPSJtaWRkbGUiIGFsaWdubWVudC1iYXNlbGluZT0ibWlkZGxlIiBzdHlsZT0iZm9udC1zaXplOiAxNnB4OyBmb250LXdlaWdodDogNDAwOyIgY2xhc3M9Im1lc3NhZ2VUZXh0IiBkeT0iMWVtIj5jcmVhdGUgcm91dGVyPC90ZXh0PjxsaW5lIHgxPSIxNTI1IiB5MT0iOTY5IiB4Mj0iOTMwIiB5Mj0iOTY5IiBjbGFzcz0ibWVzc2FnZUxpbmUwIiBkYXRhLWV0PSJtZXNzYWdlIiBkYXRhLWlkPSJpMTY0ZmVmNThiYyIgZGF0YS1mcm9tPSJyb3V0ZXIiIGRhdGEtdG89ImV4cHJlc3MiIHN0cm9rZS13aWR0aD0iMiIgc3Ryb2tlPSJub25lIiBtYXJrZXItZW5kPSJ1cmwoI2Fycm93aGVhZCkiIHN0eWxlPSJmaWxsOiBub25lOyIvPjx0ZXh0IHg9IjEyMjUiIHk9Ijk4NCIgdGV4dC1hbmNob3I9Im1pZGRsZSIgYWxpZ25tZW50LWJhc2VsaW5lPSJtaWRkbGUiIHN0eWxlPSJmb250LXNpemU6IDE2cHg7IGZvbnQtd2VpZ2h0OiA0MDA7IiBjbGFzcz0ibWVzc2FnZVRleHQiIGR5PSIxZW0iPnJvdXRlcjwvdGV4dD48bGluZSB4MT0iOTI3IiB5MT0iMTAxMyIgeDI9IjE1MjIiIHkyPSIxMDEzIiBjbGFzcz0ibWVzc2FnZUxpbmUxIiBkYXRhLWV0PSJtZXNzYWdlIiBkYXRhLWlkPSJpNWZjZDM5MjQ4OCIgZGF0YS1mcm9tPSJleHByZXNzIiBkYXRhLXRvPSJyb3V0ZXIiIHN0cm9rZS13aWR0aD0iMiIgc3Ryb2tlPSJub25lIiBzdHlsZT0ic3Ryb2tlLWRhc2hhcnJheTogMywgMzsgZmlsbDogbm9uZTsiIG1hcmtlci1lbmQ9InVybCgjYXJyb3doZWFkKSIvPjx0ZXh0IHg9IjE2MjUiIHk9IjEwMjgiIHRleHQtYW5jaG9yPSJtaWRkbGUiIGFsaWdubWVudC1iYXNlbGluZT0ibWlkZGxlIiBzdHlsZT0iZm9udC1zaXplOiAxNnB4OyBmb250LXdlaWdodDogNDAwOyIgY2xhc3M9Im1lc3NhZ2VUZXh0IiBkeT0iMWVtIj5wb3N0IG5ldyBwcm9kdWN0PC90ZXh0PjxsaW5lIHgxPSIxNTI3IiB5MT0iMTA1NyIgeDI9IjE3MjIiIHkyPSIxMDU3IiBjbGFzcz0ibWVzc2FnZUxpbmUwIiBkYXRhLWV0PSJtZXNzYWdlIiBkYXRhLWlkPSJpOGM2ZTFhYmI4ZCIgZGF0YS1mcm9tPSJyb3V0ZXIiIGRhdGEtdG89Im5ld1Byb2R1Y3QiIHN0cm9rZS13aWR0aD0iMiIgc3Ryb2tlPSJub25lIiBtYXJrZXItZW5kPSJ1cmwoI2Fycm93aGVhZCkiIHN0eWxlPSJmaWxsOiBub25lOyIvPjx0ZXh0IHg9IjE2MjgiIHk9IjEwNzIiIHRleHQtYW5jaG9yPSJtaWRkbGUiIGFsaWdubWVudC1iYXNlbGluZT0ibWlkZGxlIiBzdHlsZT0iZm9udC1zaXplOiAxNnB4OyBmb250LXdlaWdodDogNDAwOyIgY2xhc3M9Im1lc3NhZ2VUZXh0IiBkeT0iMWVtIj5yb3V0ZTwvdGV4dD48bGluZSB4MT0iMTcyNSIgeTE9IjExMDEiIHgyPSIxNTMwIiB5Mj0iMTEwMSIgY2xhc3M9Im1lc3NhZ2VMaW5lMSIgZGF0YS1ldD0ibWVzc2FnZSIgZGF0YS1pZD0iaTNkY2MwY2NjM2MiIGRhdGEtZnJvbT0ibmV3UHJvZHVjdCIgZGF0YS10bz0icm91dGVyIiBzdHJva2Utd2lkdGg9IjIiIHN0cm9rZT0ibm9uZSIgc3R5bGU9InN0cm9rZS1kYXNoYXJyYXk6IDMsIDM7IGZpbGw6IG5vbmU7IiBtYXJrZXItZW5kPSJ1cmwoI2Fycm93aGVhZCkiLz48dGV4dCB4PSIxNzI1IiB5PSIxMTE2IiB0ZXh0LWFuY2hvcj0ibWlkZGxlIiBhbGlnbm1lbnQtYmFzZWxpbmU9Im1pZGRsZSIgc3R5bGU9ImZvbnQtc2l6ZTogMTZweDsgZm9udC13ZWlnaHQ6IDQwMDsiIGNsYXNzPSJtZXNzYWdlVGV4dCIgZHk9IjFlbSI+cHV0IHVwZGF0ZSBwcm9kdWN0PC90ZXh0PjxsaW5lIHgxPSIxNTI3IiB5MT0iMTE0NSIgeDI9IjE5MjIiIHkyPSIxMTQ1IiBjbGFzcz0ibWVzc2FnZUxpbmUwIiBkYXRhLWV0PSJtZXNzYWdlIiBkYXRhLWlkPSJpNmRjNjIwMDg3OCIgZGF0YS1mcm9tPSJyb3V0ZXIiIGRhdGEtdG89InVwZGF0ZVByb2R1Y3QiIHN0cm9rZS13aWR0aD0iMiIgc3Ryb2tlPSJub25lIiBtYXJrZXItZW5kPSJ1cmwoI2Fycm93aGVhZCkiIHN0eWxlPSJmaWxsOiBub25lOyIvPjx0ZXh0IHg9IjE3MjgiIHk9IjExNjAiIHRleHQtYW5jaG9yPSJtaWRkbGUiIGFsaWdubWVudC1iYXNlbGluZT0ibWlkZGxlIiBzdHlsZT0iZm9udC1zaXplOiAxNnB4OyBmb250LXdlaWdodDogNDAwOyIgY2xhc3M9Im1lc3NhZ2VUZXh0IiBkeT0iMWVtIj5yb3V0ZTwvdGV4dD48bGluZSB4MT0iMTkyNSIgeTE9IjExODkiIHgyPSIxNTMwIiB5Mj0iMTE4OSIgY2xhc3M9Im1lc3NhZ2VMaW5lMSIgZGF0YS1ldD0ibWVzc2FnZSIgZGF0YS1pZD0iaWRkOTg0ZDdhY2EiIGRhdGEtZnJvbT0idXBkYXRlUHJvZHVjdCIgZGF0YS10bz0icm91dGVyIiBzdHJva2Utd2lkdGg9IjIiIHN0cm9rZT0ibm9uZSIgc3R5bGU9InN0cm9rZS1kYXNoYXJyYXk6IDMsIDM7IGZpbGw6IG5vbmU7IiBtYXJrZXItZW5kPSJ1cmwoI2Fycm93aGVhZCkiLz48dGV4dCB4PSIxODI1IiB5PSIxMjA0IiB0ZXh0LWFuY2hvcj0ibWlkZGxlIiBhbGlnbm1lbnQtYmFzZWxpbmU9Im1pZGRsZSIgc3R5bGU9ImZvbnQtc2l6ZTogMTZweDsgZm9udC13ZWlnaHQ6IDQwMDsiIGNsYXNzPSJtZXNzYWdlVGV4dCIgZHk9IjFlbSI+Z2V0IHByb2R1Y3QgYnkgSUQ8L3RleHQ+PGxpbmUgeDE9IjE1MjciIHkxPSIxMjMzIiB4Mj0iMjEyMiIgeTI9IjEyMzMiIGNsYXNzPSJtZXNzYWdlTGluZTAiIGRhdGEtZXQ9Im1lc3NhZ2UiIGRhdGEtaWQ9Imk1NGVlMzM3Nzg4IiBkYXRhLWZyb209InJvdXRlciIgZGF0YS10bz0iZ2V0UHJvZHVjdCIgc3Ryb2tlLXdpZHRoPSIyIiBzdHJva2U9Im5vbmUiIG1hcmtlci1lbmQ9InVybCgjYXJyb3doZWFkKSIgc3R5bGU9ImZpbGw6IG5vbmU7Ii8+PHRleHQgeD0iMTgyOCIgeT0iMTI0OCIgdGV4dC1hbmNob3I9Im1pZGRsZSIgYWxpZ25tZW50LWJhc2VsaW5lPSJtaWRkbGUiIHN0eWxlPSJmb250LXNpemU6IDE2cHg7IGZvbnQtd2VpZ2h0OiA0MDA7IiBjbGFzcz0ibWVzc2FnZVRleHQiIGR5PSIxZW0iPnJvdXRlPC90ZXh0PjxsaW5lIHgxPSIyMTI1IiB5MT0iMTI3NyIgeDI9IjE1MzAiIHkyPSIxMjc3IiBjbGFzcz0ibWVzc2FnZUxpbmUxIiBkYXRhLWV0PSJtZXNzYWdlIiBkYXRhLWlkPSJpZTI2OTM3MDNiOCIgZGF0YS1mcm9tPSJnZXRQcm9kdWN0IiBkYXRhLXRvPSJyb3V0ZXIiIHN0cm9rZS13aWR0aD0iMiIgc3Ryb2tlPSJub25lIiBzdHlsZT0ic3Ryb2tlLWRhc2hhcnJheTogMywgMzsgZmlsbDogbm9uZTsiIG1hcmtlci1lbmQ9InVybCgjYXJyb3doZWFkKSIvPjx0ZXh0IHg9IjE5MjUiIHk9IjEyOTIiIHRleHQtYW5jaG9yPSJtaWRkbGUiIGFsaWdubWVudC1iYXNlbGluZT0ibWlkZGxlIiBzdHlsZT0iZm9udC1zaXplOiAxNnB4OyBmb250LXdlaWdodDogNDAwOyIgY2xhc3M9Im1lc3NhZ2VUZXh0IiBkeT0iMWVtIj5nZXQgYWxsIHByb2R1Y3RzPC90ZXh0PjxsaW5lIHgxPSIxNTI3IiB5MT0iMTMyMSIgeDI9IjIzMjIiIHkyPSIxMzIxIiBjbGFzcz0ibWVzc2FnZUxpbmUwIiBkYXRhLWV0PSJtZXNzYWdlIiBkYXRhLWlkPSJpMTIzMDk3NTdmYiIgZGF0YS1mcm9tPSJyb3V0ZXIiIGRhdGEtdG89ImdldEFsbFByb2R1Y3RzIiBzdHJva2Utd2lkdGg9IjIiIHN0cm9rZT0ibm9uZSIgbWFya2VyLWVuZD0idXJsKCNhcnJvd2hlYWQpIiBzdHlsZT0iZmlsbDogbm9uZTsiLz48dGV4dCB4PSIxOTI4IiB5PSIxMzM2IiB0ZXh0LWFuY2hvcj0ibWlkZGxlIiBhbGlnbm1lbnQtYmFzZWxpbmU9Im1pZGRsZSIgc3R5bGU9ImZvbnQtc2l6ZTogMTZweDsgZm9udC13ZWlnaHQ6IDQwMDsiIGNsYXNzPSJtZXNzYWdlVGV4dCIgZHk9IjFlbSI+cm91dGU8L3RleHQ+PGxpbmUgeDE9IjIzMjUiIHkxPSIxMzY1IiB4Mj0iMTUzMCIgeTI9IjEzNjUiIGNsYXNzPSJtZXNzYWdlTGluZTEiIGRhdGEtZXQ9Im1lc3NhZ2UiIGRhdGEtaWQ9ImliNTE4ZTIzYzcyIiBkYXRhLWZyb209ImdldEFsbFByb2R1Y3RzIiBkYXRhLXRvPSJyb3V0ZXIiIHN0cm9rZS13aWR0aD0iMiIgc3Ryb2tlPSJub25lIiBzdHlsZT0ic3Ryb2tlLWRhc2hhcnJheTogMywgMzsgZmlsbDogbm9uZTsiIG1hcmtlci1lbmQ9InVybCgjYXJyb3doZWFkKSIvPjx0ZXh0IHg9IjIwMjUiIHk9IjEzODAiIHRleHQtYW5jaG9yPSJtaWRkbGUiIGFsaWdubWVudC1iYXNlbGluZT0ibWlkZGxlIiBzdHlsZT0iZm9udC1zaXplOiAxNnB4OyBmb250LXdlaWdodDogNDAwOyIgY2xhc3M9Im1lc3NhZ2VUZXh0IiBkeT0iMWVtIj5kZWxldGUgcHJvZHVjdCBieSBJRDwvdGV4dD48bGluZSB4MT0iMTUyNyIgeTE9IjE0MDkiIHgyPSIyNTIyIiB5Mj0iMTQwOSIgY2xhc3M9Im1lc3NhZ2VMaW5lMCIgZGF0YS1ldD0ibWVzc2FnZSIgZGF0YS1pZD0iaWYyZmJhOGU4ZWIiIGRhdGEtZnJvbT0icm91dGVyIiBkYXRhLXRvPSJkZWxldGVQcm9kdWN0IiBzdHJva2Utd2lkdGg9IjIiIHN0cm9rZT0ibm9uZSIgbWFya2VyLWVuZD0idXJsKCNhcnJvd2hlYWQpIiBzdHlsZT0iZmlsbDogbm9uZTsiLz48dGV4dCB4PSIyMDI4IiB5PSIxNDI0IiB0ZXh0LWFuY2hvcj0ibWlkZGxlIiBhbGlnbm1lbnQtYmFzZWxpbmU9Im1pZGRsZSIgc3R5bGU9ImZvbnQtc2l6ZTogMTZweDsgZm9udC13ZWlnaHQ6IDQwMDsiIGNsYXNzPSJtZXNzYWdlVGV4dCIgZHk9IjFlbSI+cm91dGU8L3RleHQ+PGxpbmUgeDE9IjI1MjUiIHkxPSIxNDUzIiB4Mj0iMTUzMCIgeTI9IjE0NTMiIGNsYXNzPSJtZXNzYWdlTGluZTEiIGRhdGEtZXQ9Im1lc3NhZ2UiIGRhdGEtaWQ9Imk5YTJmZWM4YTAxIiBkYXRhLWZyb209ImRlbGV0ZVByb2R1Y3QiIGRhdGEtdG89InJvdXRlciIgc3Ryb2tlLXdpZHRoPSIyIiBzdHJva2U9Im5vbmUiIHN0eWxlPSJzdHJva2UtZGFzaGFycmF5OiAzLCAzOyBmaWxsOiBub25lOyIgbWFya2VyLWVuZD0idXJsKCNhcnJvd2hlYWQpIi8+PHRleHQgeD0iMTYyNSIgeT0iMTQ2OCIgdGV4dC1hbmNob3I9Im1pZGRsZSIgYWxpZ25tZW50LWJhc2VsaW5lPSJtaWRkbGUiIHN0eWxlPSJmb250LXNpemU6IDE2cHg7IGZvbnQtd2VpZ2h0OiA0MDA7IiBjbGFzcz0ibWVzc2FnZVRleHQiIGR5PSIxZW0iPnBvc3QgbmV3IHByb2R1Y3Q8L3RleHQ+PGxpbmUgeDE9IjE1MjciIHkxPSIxNDk3IiB4Mj0iMTcyMiIgeTI9IjE0OTciIGNsYXNzPSJtZXNzYWdlTGluZTAiIGRhdGEtZXQ9Im1lc3NhZ2UiIGRhdGEtaWQ9Imk0MjA0MDE2YWFhIiBkYXRhLWZyb209InJvdXRlciIgZGF0YS10bz0ibmV3UHJvZHVjdCIgc3Ryb2tlLXdpZHRoPSIyIiBzdHJva2U9Im5vbmUiIG1hcmtlci1lbmQ9InVybCgjYXJyb3doZWFkKSIgc3R5bGU9ImZpbGw6IG5vbmU7Ii8+PHRleHQgeD0iMTcyNSIgeT0iMTUxMiIgdGV4dC1hbmNob3I9Im1pZGRsZSIgYWxpZ25tZW50LWJhc2VsaW5lPSJtaWRkbGUiIHN0eWxlPSJmb250LXNpemU6IDE2cHg7IGZvbnQtd2VpZ2h0OiA0MDA7IiBjbGFzcz0ibWVzc2FnZVRleHQiIGR5PSIxZW0iPnB1dCB1cGRhdGUgcHJvZHVjdDwvdGV4dD48bGluZSB4MT0iMTUyNyIgeTE9IjE1NDEiIHgyPSIxOTIyIiB5Mj0iMTU0MSIgY2xhc3M9Im1lc3NhZ2VMaW5lMCIgZGF0YS1ldD0ibWVzc2FnZSIgZGF0YS1pZD0iaWNhODk4YTY2ZDIiIGRhdGEtZnJvbT0icm91dGVyIiBkYXRhLXRvPSJ1cGRhdGVQcm9kdWN0IiBzdHJva2Utd2lkdGg9IjIiIHN0cm9rZT0ibm9uZSIgbWFya2VyLWVuZD0idXJsKCNhcnJvd2hlYWQpIiBzdHlsZT0iZmlsbDogbm9uZTsiLz48dGV4dCB4PSIxODI1IiB5PSIxNTU2IiB0ZXh0LWFuY2hvcj0ibWlkZGxlIiBhbGlnbm1lbnQtYmFzZWxpbmU9Im1pZGRsZSIgc3R5bGU9ImZvbnQtc2l6ZTogMTZweDsgZm9udC13ZWlnaHQ6IDQwMDsiIGNsYXNzPSJtZXNzYWdlVGV4dCIgZHk9IjFlbSI+Z2V0IHByb2R1Y3QgYnkgSUQ8L3RleHQ+PGxpbmUgeDE9IjE1MjciIHkxPSIxNTg1IiB4Mj0iMjEyMiIgeTI9IjE1ODUiIGNsYXNzPSJtZXNzYWdlTGluZTAiIGRhdGEtZXQ9Im1lc3NhZ2UiIGRhdGEtaWQ9ImlmZTllZjQyODUzIiBkYXRhLWZyb209InJvdXRlciIgZGF0YS10bz0iZ2V0UHJvZHVjdCIgc3Ryb2tlLXdpZHRoPSIyIiBzdHJva2U9Im5vbmUiIG1hcmtlci1lbmQ9InVybCgjYXJyb3doZWFkKSIgc3R5bGU9ImZpbGw6IG5vbmU7Ii8+PHRleHQgeD0iMTkyNSIgeT0iMTYwMCIgdGV4dC1hbmNob3I9Im1pZGRsZSIgYWxpZ25tZW50LWJhc2VsaW5lPSJtaWRkbGUiIHN0eWxlPSJmb250LXNpemU6IDE2cHg7IGZvbnQtd2VpZ2h0OiA0MDA7IiBjbGFzcz0ibWVzc2FnZVRleHQiIGR5PSIxZW0iPmdldCBhbGwgcHJvZHVjdHM8L3RleHQ+PGxpbmUgeDE9IjE1MjciIHkxPSIxNjI5IiB4Mj0iMjMyMiIgeTI9IjE2MjkiIGNsYXNzPSJtZXNzYWdlTGluZTAiIGRhdGEtZXQ9Im1lc3NhZ2UiIGRhdGEtaWQ9Imk0NTcxZDdiYjc1IiBkYXRhLWZyb209InJvdXRlciIgZGF0YS10bz0iZ2V0QWxsUHJvZHVjdHMiIHN0cm9rZS13aWR0aD0iMiIgc3Ryb2tlPSJub25lIiBtYXJrZXItZW5kPSJ1cmwoI2Fycm93aGVhZCkiIHN0eWxlPSJmaWxsOiBub25lOyIvPjx0ZXh0IHg9IjIwMjUiIHk9IjE2NDQiIHRleHQtYW5jaG9yPSJtaWRkbGUiIGFsaWdubWVudC1iYXNlbGluZT0ibWlkZGxlIiBzdHlsZT0iZm9udC1zaXplOiAxNnB4OyBmb250LXdlaWdodDogNDAwOyIgY2xhc3M9Im1lc3NhZ2VUZXh0IiBkeT0iMWVtIj5kZWxldGUgcHJvZHVjdCBieSBJRDwvdGV4dD48bGluZSB4MT0iMTUyNyIgeTE9IjE2NzMiIHgyPSIyNTIyIiB5Mj0iMTY3MyIgY2xhc3M9Im1lc3NhZ2VMaW5lMCIgZGF0YS1ldD0ibWVzc2FnZSIgZGF0YS1pZD0iaTczZDExMDdkZWUiIGRhdGEtZnJvbT0icm91dGVyIiBkYXRhLXRvPSJkZWxldGVQcm9kdWN0IiBzdHJva2Utd2lkdGg9IjIiIHN0cm9rZT0ibm9uZSIgbWFya2VyLWVuZD0idXJsKCNhcnJvd2hlYWQpIiBzdHlsZT0iZmlsbDogbm9uZTsiLz48dGV4dCB4PSIyMjQzIiB5PSIxOTIxIiB0ZXh0LWFuY2hvcj0ibWlkZGxlIiBhbGlnbm1lbnQtYmFzZWxpbmU9Im1pZGRsZSIgc3R5bGU9ImZvbnQtc2l6ZTogMTZweDsgZm9udC13ZWlnaHQ6IDQwMDsiIGNsYXNzPSJtZXNzYWdlVGV4dCIgZHk9IjFlbSI+Y3JlYXRlIHByb2R1Y3Q8L3RleHQ+PGxpbmUgeDE9IjE3MzEiIHkxPSIxOTUwIiB4Mj0iMjc1NSIgeTI9IjE5NTAiIGNsYXNzPSJtZXNzYWdlTGluZTAiIGRhdGEtZXQ9Im1lc3NhZ2UiIGRhdGEtaWQ9ImkyY2JkYzk3YjQ5IiBkYXRhLWZyb209Im5ld1Byb2R1Y3QiIGRhdGEtdG89IlByb2R1Y3QiIHN0cm9rZS13aWR0aD0iMiIgc3Ryb2tlPSJub25lIiBtYXJrZXItZW5kPSJ1cmwoI2Fycm93aGVhZCkiIHN0eWxlPSJmaWxsOiBub25lOyIvPjx0ZXh0IHg9IjIyNDYiIHk9IjE5NjUiIHRleHQtYW5jaG9yPSJtaWRkbGUiIGFsaWdubWVudC1iYXNlbGluZT0ibWlkZGxlIiBzdHlsZT0iZm9udC1zaXplOiAxNnB4OyBmb250LXdlaWdodDogNDAwOyIgY2xhc3M9Im1lc3NhZ2VUZXh0IiBkeT0iMWVtIj5wcm9kdWN0PC90ZXh0PjxsaW5lIHgxPSIyNzU4IiB5MT0iMTk5NCIgeDI9IjE3MzQiIHkyPSIxOTk0IiBjbGFzcz0ibWVzc2FnZUxpbmUxIiBkYXRhLWV0PSJtZXNzYWdlIiBkYXRhLWlkPSJpYzNiOWNiZTJiZCIgZGF0YS1mcm9tPSJQcm9kdWN0IiBkYXRhLXRvPSJuZXdQcm9kdWN0IiBzdHJva2Utd2lkdGg9IjIiIHN0cm9rZT0ibm9uZSIgc3R5bGU9InN0cm9rZS1kYXNoYXJyYXk6IDMsIDM7IGZpbGw6IG5vbmU7IiBtYXJrZXItZW5kPSJ1cmwoI2Fycm93aGVhZCkiLz48dGV4dCB4PSIxNjI2IiB5PSIyMDA5IiB0ZXh0LWFuY2hvcj0ibWlkZGxlIiBhbGlnbm1lbnQtYmFzZWxpbmU9Im1pZGRsZSIgc3R5bGU9ImZvbnQtc2l6ZTogMTZweDsgZm9udC13ZWlnaHQ6IDQwMDsiIGNsYXNzPSJtZXNzYWdlVGV4dCIgZHk9IjFlbSI+cmVzcG9uc2U8L3RleHQ+PGxpbmUgeDE9IjE3MjEiIHkxPSIyMDM4IiB4Mj0iMTUzMCIgeTI9IjIwMzgiIGNsYXNzPSJtZXNzYWdlTGluZTEiIGRhdGEtZXQ9Im1lc3NhZ2UiIGRhdGEtaWQ9ImllODI5ZGU4ZWVkIiBkYXRhLWZyb209Im5ld1Byb2R1Y3QiIGRhdGEtdG89InJvdXRlciIgc3Ryb2tlLXdpZHRoPSIyIiBzdHJva2U9Im5vbmUiIHN0eWxlPSJzdHJva2UtZGFzaGFycmF5OiAzLCAzOyBmaWxsOiBub25lOyIgbWFya2VyLWVuZD0idXJsKCNhcnJvd2hlYWQpIi8+PHRleHQgeD0iMjM0MyIgeT0iMjA5OCIgdGV4dC1hbmNob3I9Im1pZGRsZSIgYWxpZ25tZW50LWJhc2VsaW5lPSJtaWRkbGUiIHN0eWxlPSJmb250LXNpemU6IDE2cHg7IGZvbnQtd2VpZ2h0OiA0MDA7IiBjbGFzcz0ibWVzc2FnZVRleHQiIGR5PSIxZW0iPmZpbmQgYW5kIHVwZGF0ZSBwcm9kdWN0PC90ZXh0PjxsaW5lIHgxPSIxOTMxIiB5MT0iMjEyNyIgeDI9IjI3NTUiIHkyPSIyMTI3IiBjbGFzcz0ibWVzc2FnZUxpbmUwIiBkYXRhLWV0PSJtZXNzYWdlIiBkYXRhLWlkPSJpOWM1ODY3MGY3OCIgZGF0YS1mcm9tPSJ1cGRhdGVQcm9kdWN0IiBkYXRhLXRvPSJQcm9kdWN0IiBzdHJva2Utd2lkdGg9IjIiIHN0cm9rZT0ibm9uZSIgbWFya2VyLWVuZD0idXJsKCNhcnJvd2hlYWQpIiBzdHlsZT0iZmlsbDogbm9uZTsiLz48dGV4dCB4PSIyMzQ2IiB5PSIyMTQyIiB0ZXh0LWFuY2hvcj0ibWlkZGxlIiBhbGlnbm1lbnQtYmFzZWxpbmU9Im1pZGRsZSIgc3R5bGU9ImZvbnQtc2l6ZTogMTZweDsgZm9udC13ZWlnaHQ6IDQwMDsiIGNsYXNzPSJtZXNzYWdlVGV4dCIgZHk9IjFlbSI+dXBkYXRlZCBwcm9kdWN0PC90ZXh0PjxsaW5lIHgxPSIyNzU4IiB5MT0iMjE3MSIgeDI9IjE5MzQiIHkyPSIyMTcxIiBjbGFzcz0ibWVzc2FnZUxpbmUxIiBkYXRhLWV0PSJtZXNzYWdlIiBkYXRhLWlkPSJpN2FmOWFhYjY3YSIgZGF0YS1mcm9tPSJQcm9kdWN0IiBkYXRhLXRvPSJ1cGRhdGVQcm9kdWN0IiBzdHJva2Utd2lkdGg9IjIiIHN0cm9rZT0ibm9uZSIgc3R5bGU9InN0cm9rZS1kYXNoYXJyYXk6IDMsIDM7IGZpbGw6IG5vbmU7IiBtYXJrZXItZW5kPSJ1cmwoI2Fycm93aGVhZCkiLz48dGV4dCB4PSIxNzI2IiB5PSIyMTg2IiB0ZXh0LWFuY2hvcj0ibWlkZGxlIiBhbGlnbm1lbnQtYmFzZWxpbmU9Im1pZGRsZSIgc3R5bGU9ImZvbnQtc2l6ZTogMTZweDsgZm9udC13ZWlnaHQ6IDQwMDsiIGNsYXNzPSJtZXNzYWdlVGV4dCIgZHk9IjFlbSI+cmVzcG9uc2U8L3RleHQ+PGxpbmUgeDE9IjE5MjEiIHkxPSIyMjE1IiB4Mj0iMTUzMCIgeTI9IjIyMTUiIGNsYXNzPSJtZXNzYWdlTGluZTEiIGRhdGEtZXQ9Im1lc3NhZ2UiIGRhdGEtaWQ9ImljMTg4Y2NjNzkxIiBkYXRhLWZyb209InVwZGF0ZVByb2R1Y3QiIGRhdGEtdG89InJvdXRlciIgc3Ryb2tlLXdpZHRoPSIyIiBzdHJva2U9Im5vbmUiIHN0eWxlPSJzdHJva2UtZGFzaGFycmF5OiAzLCAzOyBmaWxsOiBub25lOyIgbWFya2VyLWVuZD0idXJsKCNhcnJvd2hlYWQpIi8+PHRleHQgeD0iMjQ0MyIgeT0iMjI3NSIgdGV4dC1hbmNob3I9Im1pZGRsZSIgYWxpZ25tZW50LWJhc2VsaW5lPSJtaWRkbGUiIHN0eWxlPSJmb250LXNpemU6IDE2cHg7IGZvbnQtd2VpZ2h0OiA0MDA7IiBjbGFzcz0ibWVzc2FnZVRleHQiIGR5PSIxZW0iPmZpbmQgcHJvZHVjdCBieSBJRDwvdGV4dD48bGluZSB4MT0iMjEzMSIgeTE9IjIzMDQiIHgyPSIyNzU1IiB5Mj0iMjMwNCIgY2xhc3M9Im1lc3NhZ2VMaW5lMCIgZGF0YS1ldD0ibWVzc2FnZSIgZGF0YS1pZD0iaTI5YTBiYzM5ODEiIGRhdGEtZnJvbT0iZ2V0UHJvZHVjdCIgZGF0YS10bz0iUHJvZHVjdCIgc3Ryb2tlLXdpZHRoPSIyIiBzdHJva2U9Im5vbmUiIG1hcmtlci1lbmQ9InVybCgjYXJyb3doZWFkKSIgc3R5bGU9ImZpbGw6IG5vbmU7Ii8+PHRleHQgeD0iMjQ0NiIgeT0iMjMxOSIgdGV4dC1hbmNob3I9Im1pZGRsZSIgYWxpZ25tZW50LWJhc2VsaW5lPSJtaWRkbGUiIHN0eWxlPSJmb250LXNpemU6IDE2cHg7IGZvbnQtd2VpZ2h0OiA0MDA7IiBjbGFzcz0ibWVzc2FnZVRleHQiIGR5PSIxZW0iPnByb2R1Y3Q8L3RleHQ+PGxpbmUgeDE9IjI3NTgiIHkxPSIyMzQ4IiB4Mj0iMjEzNCIgeTI9IjIzNDgiIGNsYXNzPSJtZXNzYWdlTGluZTEiIGRhdGEtZXQ9Im1lc3NhZ2UiIGRhdGEtaWQ9ImljMzA3ZDkzMDAwIiBkYXRhLWZyb209IlByb2R1Y3QiIGRhdGEtdG89ImdldFByb2R1Y3QiIHN0cm9rZS13aWR0aD0iMiIgc3Ryb2tlPSJub25lIiBzdHlsZT0ic3Ryb2tlLWRhc2hhcnJheTogMywgMzsgZmlsbDogbm9uZTsiIG1hcmtlci1lbmQ9InVybCgjYXJyb3doZWFkKSIvPjx0ZXh0IHg9IjE4MjYiIHk9IjIzNjMiIHRleHQtYW5jaG9yPSJtaWRkbGUiIGFsaWdubWVudC1iYXNlbGluZT0ibWlkZGxlIiBzdHlsZT0iZm9udC1zaXplOiAxNnB4OyBmb250LXdlaWdodDogNDAwOyIgY2xhc3M9Im1lc3NhZ2VUZXh0IiBkeT0iMWVtIj5yZXNwb25zZTwvdGV4dD48bGluZSB4MT0iMjEyMSIgeTE9IjIzOTIiIHgyPSIxNTMwIiB5Mj0iMjM5MiIgY2xhc3M9Im1lc3NhZ2VMaW5lMSIgZGF0YS1ldD0ibWVzc2FnZSIgZGF0YS1pZD0iaTg5MmU2MWVhODkiIGRhdGEtZnJvbT0iZ2V0UHJvZHVjdCIgZGF0YS10bz0icm91dGVyIiBzdHJva2Utd2lkdGg9IjIiIHN0cm9rZT0ibm9uZSIgc3R5bGU9InN0cm9rZS1kYXNoYXJyYXk6IDMsIDM7IGZpbGw6IG5vbmU7IiBtYXJrZXItZW5kPSJ1cmwoI2Fycm93aGVhZCkiLz48dGV4dCB4PSIyNTQzIiB5PSIyNDUyIiB0ZXh0LWFuY2hvcj0ibWlkZGxlIiBhbGlnbm1lbnQtYmFzZWxpbmU9Im1pZGRsZSIgc3R5bGU9ImZvbnQtc2l6ZTogMTZweDsgZm9udC13ZWlnaHQ6IDQwMDsiIGNsYXNzPSJtZXNzYWdlVGV4dCIgZHk9IjFlbSI+ZmluZCBhbGwgcHJvZHVjdHM8L3RleHQ+PGxpbmUgeDE9IjIzMzEiIHkxPSIyNDgxIiB4Mj0iMjc1NSIgeTI9IjI0ODEiIGNsYXNzPSJtZXNzYWdlTGluZTAiIGRhdGEtZXQ9Im1lc3NhZ2UiIGRhdGEtaWQ9ImkyNDQwZWQ5MWQyIiBkYXRhLWZyb209ImdldEFsbFByb2R1Y3RzIiBkYXRhLXRvPSJQcm9kdWN0IiBzdHJva2Utd2lkdGg9IjIiIHN0cm9rZT0ibm9uZSIgbWFya2VyLWVuZD0idXJsKCNhcnJvd2hlYWQpIiBzdHlsZT0iZmlsbDogbm9uZTsiLz48dGV4dCB4PSIyNTQ2IiB5PSIyNDk2IiB0ZXh0LWFuY2hvcj0ibWlkZGxlIiBhbGlnbm1lbnQtYmFzZWxpbmU9Im1pZGRsZSIgc3R5bGU9ImZvbnQtc2l6ZTogMTZweDsgZm9udC13ZWlnaHQ6IDQwMDsiIGNsYXNzPSJtZXNzYWdlVGV4dCIgZHk9IjFlbSI+YWxsIHByb2R1Y3RzPC90ZXh0PjxsaW5lIHgxPSIyNzU4IiB5MT0iMjUyNSIgeDI9IjIzMzQiIHkyPSIyNTI1IiBjbGFzcz0ibWVzc2FnZUxpbmUxIiBkYXRhLWV0PSJtZXNzYWdlIiBkYXRhLWlkPSJpZTQ2ZDI0M2U1ZiIgZGF0YS1mcm9tPSJQcm9kdWN0IiBkYXRhLXRvPSJnZXRBbGxQcm9kdWN0cyIgc3Ryb2tlLXdpZHRoPSIyIiBzdHJva2U9Im5vbmUiIHN0eWxlPSJzdHJva2UtZGFzaGFycmF5OiAzLCAzOyBmaWxsOiBub25lOyIgbWFya2VyLWVuZD0idXJsKCNhcnJvd2hlYWQpIi8+PHRleHQgeD0iMTkyNiIgeT0iMjU0MCIgdGV4dC1hbmNob3I9Im1pZGRsZSIgYWxpZ25tZW50LWJhc2VsaW5lPSJtaWRkbGUiIHN0eWxlPSJmb250LXNpemU6IDE2cHg7IGZvbnQtd2VpZ2h0OiA0MDA7IiBjbGFzcz0ibWVzc2FnZVRleHQiIGR5PSIxZW0iPnJlc3BvbnNlPC90ZXh0PjxsaW5lIHgxPSIyMzIxIiB5MT0iMjU2OSIgeDI9IjE1MzAiIHkyPSIyNTY5IiBjbGFzcz0ibWVzc2FnZUxpbmUxIiBkYXRhLWV0PSJtZXNzYWdlIiBkYXRhLWlkPSJpMWUzNmMyZjJhNSIgZGF0YS1mcm9tPSJnZXRBbGxQcm9kdWN0cyIgZGF0YS10bz0icm91dGVyIiBzdHJva2Utd2lkdGg9IjIiIHN0cm9rZT0ibm9uZSIgc3R5bGU9InN0cm9rZS1kYXNoYXJyYXk6IDMsIDM7IGZpbGw6IG5vbmU7IiBtYXJrZXItZW5kPSJ1cmwoI2Fycm93aGVhZCkiLz48dGV4dCB4PSIyNjQzIiB5PSIyNjI5IiB0ZXh0LWFuY2hvcj0ibWlkZGxlIiBhbGlnbm1lbnQtYmFzZWxpbmU9Im1pZGRsZSIgc3R5bGU9ImZvbnQtc2l6ZTogMTZweDsgZm9udC13ZWlnaHQ6IDQwMDsiIGNsYXNzPSJtZXNzYWdlVGV4dCIgZHk9IjFlbSI+ZmluZCBhbmQgZGVsZXRlIHByb2R1Y3Q8L3RleHQ+PGxpbmUgeDE9IjI1MzEiIHkxPSIyNjU4IiB4Mj0iMjc1NSIgeTI9IjI2NTgiIGNsYXNzPSJtZXNzYWdlTGluZTAiIGRhdGEtZXQ9Im1lc3NhZ2UiIGRhdGEtaWQ9ImkzMzk0N2Q2MWRmIiBkYXRhLWZyb209ImRlbGV0ZVByb2R1Y3QiIGRhdGEtdG89IlByb2R1Y3QiIHN0cm9rZS13aWR0aD0iMiIgc3Ryb2tlPSJub25lIiBtYXJrZXItZW5kPSJ1cmwoI2Fycm93aGVhZCkiIHN0eWxlPSJmaWxsOiBub25lOyIvPjx0ZXh0IHg9IjI2NDYiIHk9IjI2NzMiIHRleHQtYW5jaG9yPSJtaWRkbGUiIGFsaWdubWVudC1iYXNlbGluZT0ibWlkZGxlIiBzdHlsZT0iZm9udC1zaXplOiAxNnB4OyBmb250LXdlaWdodDogNDAwOyIgY2xhc3M9Im1lc3NhZ2VUZXh0IiBkeT0iMWVtIj5kZWxldGVkIHByb2R1Y3Q8L3RleHQ+PGxpbmUgeDE9IjI3NTgiIHkxPSIyNzAyIiB4Mj0iMjUzNCIgeTI9IjI3MDIiIGNsYXNzPSJtZXNzYWdlTGluZTEiIGRhdGEtZXQ9Im1lc3NhZ2UiIGRhdGEtaWQ9ImllMDI3MWMwMjM1IiBkYXRhLWZyb209IlByb2R1Y3QiIGRhdGEtdG89ImRlbGV0ZVByb2R1Y3QiIHN0cm9rZS13aWR0aD0iMiIgc3Ryb2tlPSJub25lIiBzdHlsZT0ic3Ryb2tlLWRhc2hhcnJheTogMywgMzsgZmlsbDogbm9uZTsiIG1hcmtlci1lbmQ9InVybCgjYXJyb3doZWFkKSIvPjx0ZXh0IHg9IjIwMjYiIHk9IjI3MTciIHRleHQtYW5jaG9yPSJtaWRkbGUiIGFsaWdubWVudC1iYXNlbGluZT0ibWlkZGxlIiBzdHlsZT0iZm9udC1zaXplOiAxNnB4OyBmb250LXdlaWdodDogNDAwOyIgY2xhc3M9Im1lc3NhZ2VUZXh0IiBkeT0iMWVtIj5yZXNwb25zZTwvdGV4dD48bGluZSB4MT0iMjUyMSIgeTE9IjI3NDYiIHgyPSIxNTMwIiB5Mj0iMjc0NiIgY2xhc3M9Im1lc3NhZ2VMaW5lMSIgZGF0YS1ldD0ibWVzc2FnZSIgZGF0YS1pZD0iaTlmZjJjYWRiNWEiIGRhdGEtZnJvbT0iZGVsZXRlUHJvZHVjdCIgZGF0YS10bz0icm91dGVyIiBzdHJva2Utd2lkdGg9IjIiIHN0cm9rZT0ibm9uZSIgc3R5bGU9InN0cm9rZS1kYXNoYXJyYXk6IDMsIDM7IGZpbGw6IG5vbmU7IiBtYXJrZXItZW5kPSJ1cmwoI2Fycm93aGVhZCkiLz48dGV4dCB4PSIzNjk0IiB5PSIyNzcxIiB0ZXh0LWFuY2hvcj0ibWlkZGxlIiBhbGlnbm1lbnQtYmFzZWxpbmU9Im1pZGRsZSIgc3R5bGU9ImZvbnQtc2l6ZTogMTZweDsgZm9udC13ZWlnaHQ6IDQwMDsiIGNsYXNzPSJtZXNzYWdlVGV4dCIgZHk9IjFlbSI+Y3JlYXRlIGVycm9yIGluc3RhbmNlPC90ZXh0PjxsaW5lIHgxPSIzODEwIiB5MT0iMjgwMCIgeDI9IjM1NzguNSIgeTI9IjI4MDAiIGNsYXNzPSJtZXNzYWdlTGluZTAiIGRhdGEtZXQ9Im1lc3NhZ2UiIGRhdGEtaWQ9Imk5MzI2ZjA4YTQ5IiBkYXRhLWZyb209ImVycm9ySGFuZGxlck1pZGRsZXdhcmUiIGRhdGEtdG89IkVycm9ySGFuZGxlcl9JbnN0YW5jZSIgc3Ryb2tlLXdpZHRoPSIyIiBzdHJva2U9Im5vbmUiIG1hcmtlci1lbmQ9InVybCgjYXJyb3doZWFkKSIgc3R5bGU9ImZpbGw6IG5vbmU7Ii8+PHRleHQgeD0iMzY5MSIgeT0iMjgxNSIgdGV4dC1hbmNob3I9Im1pZGRsZSIgYWxpZ25tZW50LWJhc2VsaW5lPSJtaWRkbGUiIHN0eWxlPSJmb250LXNpemU6IDE2cHg7IGZvbnQtd2VpZ2h0OiA0MDA7IiBjbGFzcz0ibWVzc2FnZVRleHQiIGR5PSIxZW0iPmVycm9yIGluc3RhbmNlPC90ZXh0PjxsaW5lIHgxPSIzNTc1LjUiIHkxPSIyODQ0IiB4Mj0iMzgwNyIgeTI9IjI4NDQiIGNsYXNzPSJtZXNzYWdlTGluZTEiIGRhdGEtZXQ9Im1lc3NhZ2UiIGRhdGEtaWQ9Imk1YjIyNDg5MjFkIiBkYXRhLWZyb209IkVycm9ySGFuZGxlcl9JbnN0YW5jZSIgZGF0YS10bz0iZXJyb3JIYW5kbGVyTWlkZGxld2FyZSIgc3Ryb2tlLXdpZHRoPSIyIiBzdHJva2U9Im5vbmUiIHN0eWxlPSJzdHJva2UtZGFzaGFycmF5OiAzLCAzOyBmaWxsOiBub25lOyIgbWFya2VyLWVuZD0idXJsKCNhcnJvd2hlYWQpIi8+PHRleHQgeD0iMjM3MCIgeT0iMjg1OSIgdGV4dC1hbmNob3I9Im1pZGRsZSIgYWxpZ25tZW50LWJhc2VsaW5lPSJtaWRkbGUiIHN0eWxlPSJmb250LXNpemU6IDE2cHg7IGZvbnQtd2VpZ2h0OiA0MDA7IiBjbGFzcz0ibWVzc2FnZVRleHQiIGR5PSIxZW0iPmVycm9yIHJlc3BvbnNlPC90ZXh0PjxsaW5lIHgxPSIzODEwIiB5MT0iMjg4OCIgeDI9IjkzMCIgeTI9IjI4ODgiIGNsYXNzPSJtZXNzYWdlTGluZTEiIGRhdGEtZXQ9Im1lc3NhZ2UiIGRhdGEtaWQ9ImkwMGZjZDY4NDRmIiBkYXRhLWZyb209ImVycm9ySGFuZGxlck1pZGRsZXdhcmUiIGRhdGEtdG89ImV4cHJlc3MiIHN0cm9rZS13aWR0aD0iMiIgc3Ryb2tlPSJub25lIiBzdHlsZT0ic3Ryb2tlLWRhc2hhcnJheTogMywgMzsgZmlsbDogbm9uZTsiIG1hcmtlci1lbmQ9InVybCgjYXJyb3doZWFkKSIvPjwvc3ZnPg==;" vertex="1" parent="1">
          <mxGeometry width="1200" height="895" as="geometry" />
        </mxCell>
      </root>
    </mxGraphModel>
  </diagram>
</mxfile>
